<?xml version="1.0" encoding="utf-8"?>
<!-- Generator: Adobe Illustrator 16.0.0, SVG Export Plug-In . SVG Version: 6.00 Build 0)  -->
<!DOCTYPE svg PUBLIC "-//W3C//DTD SVG 1.1//EN" "http://www.w3.org/Graphics/SVG/1.1/DTD/svg11.dtd">
<svg version="1.1" id="Calque_1" xmlns="http://www.w3.org/2000/svg" xmlns:xlink="http://www.w3.org/1999/xlink" x="0px" y="0px"
	 width="66.655px" height="72.102px" viewBox="0 0 66.655 72.102" enable-background="new 0 0 66.655 72.102" xml:space="preserve">
<path fill="#1D1D1B" d="M65.313,43.091c-1.793-5.045-5.345-9.624-10.27-13.24C45.139,22.577,41.11,16.9,43.072,12.978
	c0.706-1.414,0.133-3.132-1.28-3.839s-3.132-0.134-3.839,1.28c-4.583,9.167,5.625,18.112,13.703,24.044
	c9.169,6.733,10.401,15.341,8.497,21.151c-0.808,2.466-2.177,4.583-3.979,6.273v-9.381c0-9.345-6.581-17.149-15.359-19.041
	l-2.361-3.239c-0.504-0.857-1.089-1.66-1.747-2.397l-0.001-0.001l0,0c-2.19-2.452-5.176-4.176-8.552-4.772
	c0.588-1.47,0.915-3.072,0.915-4.751c0-1.276-0.189-2.508-0.537-3.672L32.537,0L21.172,6.48c-1.511-0.627-3.166-0.975-4.903-0.975
	s-3.393,0.348-4.903,0.975L0,0l4.006,14.633c-0.348,1.164-0.537,2.396-0.537,3.672c0,5.012,2.882,9.348,7.077,11.449v8.052
	c0,5.685,3.166,10.629,7.831,13.168v15.518h-2.711c-1.518,0-2.748,1.23-2.748,2.748c0,1.518,1.23,2.749,2.748,2.749h19.802
	l0.052-0.086c0.342,0.019,0.732,0.038,1.172,0.056v0.03c0.15,0,0.299-0.008,0.447-0.011c1.667,0.066,3.931,0.124,6.743,0.124
	c10.418,0,18.736-5.635,21.709-14.705C67.1,52.794,67.003,47.848,65.313,43.091z"/>
</svg>
