<?xml version="1.0" encoding="utf-8"?>
<!-- Generator: Adobe Illustrator 16.0.0, SVG Export Plug-In . SVG Version: 6.00 Build 0)  -->
<!DOCTYPE svg PUBLIC "-//W3C//DTD SVG 1.1//EN" "http://www.w3.org/Graphics/SVG/1.1/DTD/svg11.dtd">
<svg version="1.1" id="Calque_1" xmlns="http://www.w3.org/2000/svg" xmlns:xlink="http://www.w3.org/1999/xlink" x="0px" y="0px"
	 width="414px" height="318px" viewBox="0 0 414 318" enable-background="new 0 0 414 318" xml:space="preserve">
<g opacity="0.5">
	<path fill="#FFFFFF" d="M186.357,61.161c-2.574,0-5.057,0.387-7.396,1.1c-3.758-11.661-14.691-20.099-27.603-20.099
		c-5.45,0-10.547,1.506-14.901,4.121c-7.213-5.311-16.119-8.455-25.764-8.455c-21.588,0-39.492,15.728-42.904,36.348
		c-0.2-0.004-0.397-0.015-0.596-0.015c-13.991,0-25.333,11.342-25.333,25.333c0,13.991,11.342,25.333,25.333,25.333
		c5.817,0,11.172-1.965,15.448-5.262c5.578,9.714,16.047,16.262,28.052,16.262c9.9,0,18.758-4.456,24.689-11.466
		c4.58,3.031,10.069,4.8,15.976,4.8c12.353,0,22.894-7.726,27.071-18.606c2.496,0.821,5.158,1.272,7.928,1.272
		c13.99,0,25.333-11.342,25.333-25.333C211.69,72.502,200.348,61.161,186.357,61.161z"/>
	<path fill="#FFFFFF" d="M353.487,232.563c-0.205,0-0.403,0.024-0.605,0.03c-3.305-19.113-19.953-33.653-40.01-33.653
		c-12.732,0-24.092,5.861-31.539,15.029c-0.527-0.035-1.06-0.06-1.597-0.06c-7.399,0-14.01,3.375-18.376,8.67
		c-3.309-5.205-9.112-8.67-15.738-8.67c-10.301,0-18.65,8.351-18.65,18.652c0,10.301,8.351,18.65,18.65,18.65
		c0.967,0,1.906-0.096,2.832-0.237c-0.001,0.079-0.006,0.157-0.006,0.237c0,13.146,10.658,23.805,23.806,23.805
		c5.302,0,10.196-1.732,14.152-4.664c7.109,6.115,16.353,9.818,26.466,9.818c11.998,0,22.776-5.205,30.212-13.477
		c2.973,2.002,6.552,3.17,10.403,3.17c10.302,0,18.652-8.351,18.652-18.652C372.14,240.914,363.789,232.563,353.487,232.563z"/>
</g>
</svg>
