<?xml version="1.0" encoding="utf-8"?>
<!-- Generator: Adobe Illustrator 16.0.0, SVG Export Plug-In . SVG Version: 6.00 Build 0)  -->
<!DOCTYPE svg PUBLIC "-//W3C//DTD SVG 1.1//EN" "http://www.w3.org/Graphics/SVG/1.1/DTD/svg11.dtd">
<svg version="1.1" id="Calque_1" xmlns="http://www.w3.org/2000/svg" xmlns:xlink="http://www.w3.org/1999/xlink" x="0px" y="0px"
	 width="656.123px" height="165px" viewBox="0 0 656.123 165" enable-background="new 0 0 656.123 165" xml:space="preserve">
<g>
	<defs>
		<polygon id="SVGID_1_" points="656.123,165 0,165 162.958,0 493.164,0 		"/>
	</defs>
	<clipPath id="SVGID_2_">
		<use xlink:href="#SVGID_1_"  overflow="visible"/>
	</clipPath>
	<rect x="-67.438" y="-64" clip-path="url(#SVGID_2_)" fill="#AD4545" width="815" height="308"/>
	<g clip-path="url(#SVGID_2_)">
		<g>
			<path fill="#A54141" d="M-1.425,131.362v35.341c0,9.761,7.764,17.672,17.341,17.672s17.342-7.911,17.342-17.672v-35.341H-1.425z"
				/>
			<path fill="#A54141" d="M33.258,131.362v35.341c0,9.761,7.763,17.672,17.341,17.672c9.577,0,17.341-7.911,17.341-17.672v-35.341
				H33.258z"/>
			<path fill="#A54141" d="M67.941,131.362v35.341c0,9.761,7.763,17.672,17.341,17.672c9.579,0,17.342-7.911,17.342-17.672v-35.341
				H67.941z"/>
			<path fill="#A54141" d="M102.624,131.362v35.341c0,9.761,7.764,17.672,17.341,17.672c9.578,0,17.341-7.911,17.341-17.672v-35.341
				H102.624z"/>
			<path fill="#A54141" d="M137.307,131.362v35.341c0,9.761,7.764,17.672,17.341,17.672c9.578,0,17.342-7.911,17.342-17.672v-35.341
				H137.307z"/>
			<path fill="#A54141" d="M171.99,131.362v35.341c0,9.761,7.763,17.672,17.341,17.672c9.576,0,17.341-7.911,17.341-17.672v-35.341
				H171.99z"/>
			<path fill="#A54141" d="M206.672,131.362v35.341c0,9.761,7.763,17.672,17.34,17.672c9.578,0,17.343-7.911,17.343-17.672v-35.341
				H206.672z"/>
			<path fill="#A54141" d="M241.355,131.362v35.341c0,9.761,7.764,17.672,17.34,17.672c9.579,0,17.341-7.911,17.341-17.672v-35.341
				H241.355z"/>
			<path fill="#A54141" d="M276.037,131.362v35.341c0,9.761,7.764,17.672,17.343,17.672c9.576,0,17.34-7.911,17.34-17.672v-35.341
				H276.037z"/>
			<path fill="#A54141" d="M310.72,131.362v35.341c0,9.761,7.765,17.672,17.342,17.672c9.576,0,17.342-7.911,17.342-17.672v-35.341
				H310.72z"/>
			<path fill="#A54141" d="M345.404,131.362v35.341c0,9.761,7.764,17.672,17.341,17.672c9.576,0,17.342-7.911,17.342-17.672v-35.341
				H345.404z"/>
			<path fill="#A54141" d="M380.087,131.362v35.341c0,9.761,7.763,17.672,17.343,17.672c9.574,0,17.339-7.911,17.339-17.672v-35.341
				H380.087z"/>
			<path fill="#A54141" d="M414.769,131.362v35.341c0,9.761,7.765,17.672,17.342,17.672c9.578,0,17.341-7.911,17.341-17.672v-35.341
				H414.769z"/>
			<path fill="#A54141" d="M449.451,131.362v35.341c0,9.761,7.765,17.672,17.342,17.672s17.342-7.911,17.342-17.672v-35.341H449.451
				z"/>
			<path fill="#A54141" d="M484.135,131.362v35.341c0,9.761,7.765,17.672,17.341,17.672c9.577,0,17.342-7.911,17.342-17.672v-35.341
				H484.135z"/>
			<path fill="#A54141" d="M518.817,131.362v35.341c0,9.761,7.765,17.672,17.343,17.672c9.575,0,17.34-7.911,17.34-17.672v-35.341
				H518.817z"/>
			<path fill="#A54141" d="M553.5,131.362v35.341c0,9.761,7.764,17.672,17.341,17.672c9.578,0,17.342-7.911,17.342-17.672v-35.341
				H553.5z"/>
			<path fill="#A54141" d="M588.183,131.362v35.341c0,9.761,7.765,17.672,17.341,17.672c9.578,0,17.342-7.911,17.342-17.672v-35.341
				H588.183z"/>
			<path fill="#A54141" d="M622.865,131.362v35.341c0,9.761,7.765,17.672,17.342,17.672c9.576,0,17.341-7.911,17.341-17.672v-35.341
				H622.865z"/>
		</g>
		<g>
			<path fill="#AD4545" d="M-1.425,104.855v35.341c0,9.761,7.764,17.672,17.341,17.672s17.342-7.911,17.342-17.672v-35.341H-1.425z"
				/>
			<path fill="#AD4545" d="M33.258,104.855v35.341c0,9.761,7.763,17.672,17.341,17.672c9.577,0,17.341-7.911,17.341-17.672v-35.341
				H33.258z"/>
			<path fill="#AD4545" d="M67.941,104.855v35.341c0,9.761,7.763,17.672,17.341,17.672c9.579,0,17.342-7.911,17.342-17.672v-35.341
				H67.941z"/>
			<path fill="#AD4545" d="M102.624,104.855v35.341c0,9.761,7.764,17.672,17.341,17.672c9.578,0,17.341-7.911,17.341-17.672v-35.341
				H102.624z"/>
			<path fill="#AD4545" d="M137.307,104.855v35.341c0,9.761,7.764,17.672,17.341,17.672c9.578,0,17.342-7.911,17.342-17.672v-35.341
				H137.307z"/>
			<path fill="#AD4545" d="M171.99,104.855v35.341c0,9.761,7.763,17.672,17.341,17.672c9.576,0,17.341-7.911,17.341-17.672v-35.341
				H171.99z"/>
			<path fill="#AD4545" d="M206.672,104.855v35.341c0,9.761,7.763,17.672,17.34,17.672c9.578,0,17.343-7.911,17.343-17.672v-35.341
				H206.672z"/>
			<path fill="#AD4545" d="M241.355,104.855v35.341c0,9.761,7.764,17.672,17.34,17.672c9.579,0,17.341-7.911,17.341-17.672v-35.341
				H241.355z"/>
			<path fill="#AD4545" d="M276.037,104.855v35.341c0,9.761,7.764,17.672,17.343,17.672c9.576,0,17.34-7.911,17.34-17.672v-35.341
				H276.037z"/>
			<path fill="#AD4545" d="M310.72,104.855v35.341c0,9.761,7.765,17.672,17.342,17.672c9.576,0,17.342-7.911,17.342-17.672v-35.341
				H310.72z"/>
			<path fill="#AD4545" d="M345.404,104.855v35.341c0,9.761,7.764,17.672,17.341,17.672c9.576,0,17.342-7.911,17.342-17.672v-35.341
				H345.404z"/>
			<path fill="#AD4545" d="M380.087,104.855v35.341c0,9.761,7.763,17.672,17.343,17.672c9.574,0,17.339-7.911,17.339-17.672v-35.341
				H380.087z"/>
			<path fill="#AD4545" d="M414.769,104.855v35.341c0,9.761,7.765,17.672,17.342,17.672c9.578,0,17.341-7.911,17.341-17.672v-35.341
				H414.769z"/>
			<path fill="#AD4545" d="M449.451,104.855v35.341c0,9.761,7.765,17.672,17.342,17.672s17.342-7.911,17.342-17.672v-35.341H449.451
				z"/>
			<path fill="#AD4545" d="M484.135,104.855v35.341c0,9.761,7.765,17.672,17.341,17.672c9.577,0,17.342-7.911,17.342-17.672v-35.341
				H484.135z"/>
			<path fill="#AD4545" d="M518.817,104.855v35.341c0,9.761,7.765,17.672,17.343,17.672c9.575,0,17.34-7.911,17.34-17.672v-35.341
				H518.817z"/>
			<path fill="#AD4545" d="M553.5,104.855v35.341c0,9.761,7.764,17.672,17.341,17.672c9.578,0,17.342-7.911,17.342-17.672v-35.341
				H553.5z"/>
			<path fill="#AD4545" d="M588.183,104.855v35.341c0,9.761,7.765,17.672,17.341,17.672c9.578,0,17.342-7.911,17.342-17.672v-35.341
				H588.183z"/>
			<path fill="#AD4545" d="M622.865,104.855v35.341c0,9.761,7.765,17.672,17.342,17.672c9.576,0,17.341-7.911,17.341-17.672v-35.341
				H622.865z"/>
		</g>
		<g>
			<path fill="#BC4B4B" d="M-1.425,78.348v35.342c0,9.761,7.764,17.672,17.341,17.672s17.342-7.911,17.342-17.672V78.348H-1.425z"/>
			<path fill="#BC4B4B" d="M33.258,78.348v35.342c0,9.761,7.763,17.672,17.341,17.672c9.577,0,17.341-7.911,17.341-17.672V78.348
				H33.258z"/>
			<path fill="#BC4B4B" d="M67.941,78.348v35.342c0,9.761,7.763,17.672,17.341,17.672c9.579,0,17.342-7.911,17.342-17.672V78.348
				H67.941z"/>
			<path fill="#BC4B4B" d="M102.624,78.348v35.342c0,9.761,7.764,17.672,17.341,17.672c9.578,0,17.341-7.911,17.341-17.672V78.348
				H102.624z"/>
			<path fill="#BC4B4B" d="M137.307,78.348v35.342c0,9.761,7.764,17.672,17.341,17.672c9.578,0,17.342-7.911,17.342-17.672V78.348
				H137.307z"/>
			<path fill="#BC4B4B" d="M171.99,78.348v35.342c0,9.761,7.763,17.672,17.341,17.672c9.576,0,17.341-7.911,17.341-17.672V78.348
				H171.99z"/>
			<path fill="#BC4B4B" d="M206.672,78.348v35.342c0,9.761,7.763,17.672,17.34,17.672c9.578,0,17.343-7.911,17.343-17.672V78.348
				H206.672z"/>
			<path fill="#BC4B4B" d="M241.355,78.348v35.342c0,9.761,7.764,17.672,17.34,17.672c9.579,0,17.341-7.911,17.341-17.672V78.348
				H241.355z"/>
			<path fill="#BC4B4B" d="M276.037,78.348v35.342c0,9.761,7.764,17.672,17.343,17.672c9.576,0,17.34-7.911,17.34-17.672V78.348
				H276.037z"/>
			<path fill="#BC4B4B" d="M310.72,78.348v35.342c0,9.761,7.765,17.672,17.342,17.672c9.576,0,17.342-7.911,17.342-17.672V78.348
				H310.72z"/>
			<path fill="#BC4B4B" d="M345.404,78.348v35.342c0,9.761,7.764,17.672,17.341,17.672c9.576,0,17.342-7.911,17.342-17.672V78.348
				H345.404z"/>
			<path fill="#BC4B4B" d="M380.087,78.348v35.342c0,9.761,7.763,17.672,17.343,17.672c9.574,0,17.339-7.911,17.339-17.672V78.348
				H380.087z"/>
			<path fill="#BC4B4B" d="M414.769,78.348v35.342c0,9.761,7.765,17.672,17.342,17.672c9.578,0,17.341-7.911,17.341-17.672V78.348
				H414.769z"/>
			<path fill="#BC4B4B" d="M449.451,78.348v35.342c0,9.761,7.765,17.672,17.342,17.672s17.342-7.911,17.342-17.672V78.348H449.451z"
				/>
			<path fill="#BC4B4B" d="M484.135,78.348v35.342c0,9.761,7.765,17.672,17.341,17.672c9.577,0,17.342-7.911,17.342-17.672V78.348
				H484.135z"/>
			<path fill="#BC4B4B" d="M518.817,78.348v35.342c0,9.761,7.765,17.672,17.343,17.672c9.575,0,17.34-7.911,17.34-17.672V78.348
				H518.817z"/>
			<path fill="#BC4B4B" d="M553.5,78.348v35.342c0,9.761,7.764,17.672,17.341,17.672c9.578,0,17.342-7.911,17.342-17.672V78.348
				H553.5z"/>
			<path fill="#BC4B4B" d="M588.183,78.348v35.342c0,9.761,7.765,17.672,17.341,17.672c9.578,0,17.342-7.911,17.342-17.672V78.348
				H588.183z"/>
			<path fill="#BC4B4B" d="M622.865,78.348v35.342c0,9.761,7.765,17.672,17.342,17.672c9.576,0,17.341-7.911,17.341-17.672V78.348
				H622.865z"/>
		</g>
		<g>
			<path fill="#CD5C5C" d="M-1.425,51.841v35.341c0,9.761,7.764,17.672,17.341,17.672s17.342-7.911,17.342-17.672V51.841H-1.425z"/>
			<path fill="#CD5C5C" d="M33.258,51.841v35.341c0,9.761,7.763,17.672,17.341,17.672c9.577,0,17.341-7.911,17.341-17.672V51.841
				H33.258z"/>
			<path fill="#CD5C5C" d="M67.941,51.841v35.341c0,9.761,7.763,17.672,17.341,17.672c9.579,0,17.342-7.911,17.342-17.672V51.841
				H67.941z"/>
			<path fill="#CD5C5C" d="M102.624,51.841v35.341c0,9.761,7.764,17.672,17.341,17.672c9.578,0,17.341-7.911,17.341-17.672V51.841
				H102.624z"/>
			<path fill="#CD5C5C" d="M137.307,51.841v35.341c0,9.761,7.764,17.672,17.341,17.672c9.578,0,17.342-7.911,17.342-17.672V51.841
				H137.307z"/>
			<path fill="#CD5C5C" d="M171.99,51.841v35.341c0,9.761,7.763,17.672,17.341,17.672c9.576,0,17.341-7.911,17.341-17.672V51.841
				H171.99z"/>
			<path fill="#CD5C5C" d="M206.672,51.841v35.341c0,9.761,7.763,17.672,17.34,17.672c9.578,0,17.343-7.911,17.343-17.672V51.841
				H206.672z"/>
			<path fill="#CD5C5C" d="M241.355,51.841v35.341c0,9.761,7.764,17.672,17.34,17.672c9.579,0,17.341-7.911,17.341-17.672V51.841
				H241.355z"/>
			<path fill="#CD5C5C" d="M276.037,51.841v35.341c0,9.761,7.764,17.672,17.343,17.672c9.576,0,17.34-7.911,17.34-17.672V51.841
				H276.037z"/>
			<path fill="#CD5C5C" d="M310.72,51.841v35.341c0,9.761,7.765,17.672,17.342,17.672c9.576,0,17.342-7.911,17.342-17.672V51.841
				H310.72z"/>
			<path fill="#CD5C5C" d="M345.404,51.841v35.341c0,9.761,7.764,17.672,17.341,17.672c9.576,0,17.342-7.911,17.342-17.672V51.841
				H345.404z"/>
			<path fill="#CD5C5C" d="M380.087,51.841v35.341c0,9.761,7.763,17.672,17.343,17.672c9.574,0,17.339-7.911,17.339-17.672V51.841
				H380.087z"/>
			<path fill="#CD5C5C" d="M414.769,51.841v35.341c0,9.761,7.765,17.672,17.342,17.672c9.578,0,17.341-7.911,17.341-17.672V51.841
				H414.769z"/>
			<path fill="#CD5C5C" d="M449.451,51.841v35.341c0,9.761,7.765,17.672,17.342,17.672s17.342-7.911,17.342-17.672V51.841H449.451z"
				/>
			<path fill="#CD5C5C" d="M484.135,51.841v35.341c0,9.761,7.765,17.672,17.341,17.672c9.577,0,17.342-7.911,17.342-17.672V51.841
				H484.135z"/>
			<path fill="#CD5C5C" d="M518.817,51.841v35.341c0,9.761,7.765,17.672,17.343,17.672c9.575,0,17.34-7.911,17.34-17.672V51.841
				H518.817z"/>
			<path fill="#CD5C5C" d="M553.5,51.841v35.341c0,9.761,7.764,17.672,17.341,17.672c9.578,0,17.342-7.911,17.342-17.672V51.841
				H553.5z"/>
			<path fill="#CD5C5C" d="M588.183,51.841v35.341c0,9.761,7.765,17.672,17.341,17.672c9.578,0,17.342-7.911,17.342-17.672V51.841
				H588.183z"/>
			<path fill="#CD5C5C" d="M622.865,51.841v35.341c0,9.761,7.765,17.672,17.342,17.672c9.576,0,17.341-7.911,17.341-17.672V51.841
				H622.865z"/>
		</g>
		<g>
			<path fill="#D66B6B" d="M-1.425,25.334v35.34c0,9.761,7.764,17.673,17.341,17.673s17.342-7.912,17.342-17.673v-35.34H-1.425z"/>
			<path fill="#D66B6B" d="M33.258,25.334v35.34c0,9.761,7.763,17.673,17.341,17.673c9.577,0,17.341-7.912,17.341-17.673v-35.34
				H33.258z"/>
			<path fill="#D66B6B" d="M67.941,25.334v35.34c0,9.761,7.763,17.673,17.341,17.673c9.579,0,17.342-7.912,17.342-17.673v-35.34
				H67.941z"/>
			<path fill="#D66B6B" d="M102.624,25.334v35.34c0,9.761,7.764,17.673,17.341,17.673c9.578,0,17.341-7.912,17.341-17.673v-35.34
				H102.624z"/>
			<path fill="#D66B6B" d="M137.307,25.334v35.34c0,9.761,7.764,17.673,17.341,17.673c9.578,0,17.342-7.912,17.342-17.673v-35.34
				H137.307z"/>
			<path fill="#D66B6B" d="M171.99,25.334v35.34c0,9.761,7.763,17.673,17.341,17.673c9.576,0,17.341-7.912,17.341-17.673v-35.34
				H171.99z"/>
			<path fill="#D66B6B" d="M206.672,25.334v35.34c0,9.761,7.763,17.673,17.34,17.673c9.578,0,17.343-7.912,17.343-17.673v-35.34
				H206.672z"/>
			<path fill="#D66B6B" d="M241.355,25.334v35.34c0,9.761,7.764,17.673,17.34,17.673c9.579,0,17.341-7.912,17.341-17.673v-35.34
				H241.355z"/>
			<path fill="#D66B6B" d="M276.037,25.334v35.34c0,9.761,7.764,17.673,17.343,17.673c9.576,0,17.34-7.912,17.34-17.673v-35.34
				H276.037z"/>
			<path fill="#D66B6B" d="M310.72,25.334v35.34c0,9.761,7.765,17.673,17.342,17.673c9.576,0,17.342-7.912,17.342-17.673v-35.34
				H310.72z"/>
			<path fill="#D66B6B" d="M345.404,25.334v35.34c0,9.761,7.764,17.673,17.341,17.673c9.576,0,17.342-7.912,17.342-17.673v-35.34
				H345.404z"/>
			<path fill="#D66B6B" d="M380.087,25.334v35.34c0,9.761,7.763,17.673,17.343,17.673c9.574,0,17.339-7.912,17.339-17.673v-35.34
				H380.087z"/>
			<path fill="#D66B6B" d="M414.769,25.334v35.34c0,9.761,7.765,17.673,17.342,17.673c9.578,0,17.341-7.912,17.341-17.673v-35.34
				H414.769z"/>
			<path fill="#D66B6B" d="M449.451,25.334v35.34c0,9.761,7.765,17.673,17.342,17.673s17.342-7.912,17.342-17.673v-35.34H449.451z"
				/>
			<path fill="#D66B6B" d="M484.135,25.334v35.34c0,9.761,7.765,17.673,17.341,17.673c9.577,0,17.342-7.912,17.342-17.673v-35.34
				H484.135z"/>
			<path fill="#D66B6B" d="M518.817,25.334v35.34c0,9.761,7.765,17.673,17.343,17.673c9.575,0,17.34-7.912,17.34-17.673v-35.34
				H518.817z"/>
			<path fill="#D66B6B" d="M553.5,25.334v35.34c0,9.761,7.764,17.673,17.341,17.673c9.578,0,17.342-7.912,17.342-17.673v-35.34
				H553.5z"/>
			<path fill="#D66B6B" d="M588.183,25.334v35.34c0,9.761,7.765,17.673,17.341,17.673c9.578,0,17.342-7.912,17.342-17.673v-35.34
				H588.183z"/>
			<path fill="#D66B6B" d="M622.865,25.334v35.34c0,9.761,7.765,17.673,17.342,17.673c9.576,0,17.341-7.912,17.341-17.673v-35.34
				H622.865z"/>
		</g>
		<g>
			<path fill="#DD7C7C" d="M-1.425-1.173v35.341c0,9.761,7.764,17.673,17.341,17.673s17.342-7.912,17.342-17.673V-1.173H-1.425z"/>
			<path fill="#DD7C7C" d="M33.258-1.173v35.341c0,9.761,7.763,17.673,17.341,17.673c9.577,0,17.341-7.912,17.341-17.673V-1.173
				H33.258z"/>
			<path fill="#DD7C7C" d="M67.941-1.173v35.341c0,9.761,7.763,17.673,17.341,17.673c9.579,0,17.342-7.912,17.342-17.673V-1.173
				H67.941z"/>
			<path fill="#DD7C7C" d="M102.624-1.173v35.341c0,9.761,7.764,17.673,17.341,17.673c9.578,0,17.341-7.912,17.341-17.673V-1.173
				H102.624z"/>
			<path fill="#DD7C7C" d="M137.307-1.173v35.341c0,9.761,7.764,17.673,17.341,17.673c9.578,0,17.342-7.912,17.342-17.673V-1.173
				H137.307z"/>
			<path fill="#DD7C7C" d="M171.99-1.173v35.341c0,9.761,7.763,17.673,17.341,17.673c9.576,0,17.341-7.912,17.341-17.673V-1.173
				H171.99z"/>
			<path fill="#DD7C7C" d="M206.672-1.173v35.341c0,9.761,7.763,17.673,17.34,17.673c9.578,0,17.343-7.912,17.343-17.673V-1.173
				H206.672z"/>
			<path fill="#DD7C7C" d="M241.355-1.173v35.341c0,9.761,7.764,17.673,17.34,17.673c9.579,0,17.341-7.912,17.341-17.673V-1.173
				H241.355z"/>
			<path fill="#DD7C7C" d="M276.037-1.173v35.341c0,9.761,7.764,17.673,17.343,17.673c9.576,0,17.34-7.912,17.34-17.673V-1.173
				H276.037z"/>
			<path fill="#DD7C7C" d="M310.72-1.173v35.341c0,9.761,7.765,17.673,17.342,17.673c9.576,0,17.342-7.912,17.342-17.673V-1.173
				H310.72z"/>
			<path fill="#DD7C7C" d="M345.404-1.173v35.341c0,9.761,7.764,17.673,17.341,17.673c9.576,0,17.342-7.912,17.342-17.673V-1.173
				H345.404z"/>
			<path fill="#DD7C7C" d="M380.087-1.173v35.341c0,9.761,7.763,17.673,17.343,17.673c9.574,0,17.339-7.912,17.339-17.673V-1.173
				H380.087z"/>
			<path fill="#DD7C7C" d="M414.769-1.173v35.341c0,9.761,7.765,17.673,17.342,17.673c9.578,0,17.341-7.912,17.341-17.673V-1.173
				H414.769z"/>
			<path fill="#DD7C7C" d="M449.451-1.173v35.341c0,9.761,7.765,17.673,17.342,17.673s17.342-7.912,17.342-17.673V-1.173H449.451z"
				/>
			<path fill="#DD7C7C" d="M484.135-1.173v35.341c0,9.761,7.765,17.673,17.341,17.673c9.577,0,17.342-7.912,17.342-17.673V-1.173
				H484.135z"/>
			<path fill="#DD7C7C" d="M518.817-1.173v35.341c0,9.761,7.765,17.673,17.343,17.673c9.575,0,17.34-7.912,17.34-17.673V-1.173
				H518.817z"/>
			<path fill="#DD7C7C" d="M553.5-1.173v35.341c0,9.761,7.764,17.673,17.341,17.673c9.578,0,17.342-7.912,17.342-17.673V-1.173
				H553.5z"/>
			<path fill="#DD7C7C" d="M588.183-1.173v35.341c0,9.761,7.765,17.673,17.341,17.673c9.578,0,17.342-7.912,17.342-17.673V-1.173
				H588.183z"/>
			<path fill="#DD7C7C" d="M622.865-1.173v35.341c0,9.761,7.765,17.673,17.342,17.673c9.576,0,17.341-7.912,17.341-17.673V-1.173
				H622.865z"/>
		</g>
		<g>
			<path fill="#D88B8B" d="M-1.425-27.68v35.34c0,9.761,7.764,17.673,17.341,17.673s17.342-7.912,17.342-17.673v-35.34H-1.425z"/>
			<path fill="#D88B8B" d="M33.258-27.68v35.34c0,9.761,7.763,17.673,17.341,17.673c9.577,0,17.341-7.912,17.341-17.673v-35.34
				H33.258z"/>
			<path fill="#D88B8B" d="M67.941-27.68v35.34c0,9.761,7.763,17.673,17.341,17.673c9.579,0,17.342-7.912,17.342-17.673v-35.34
				H67.941z"/>
			<path fill="#D88B8B" d="M102.624-27.68v35.34c0,9.761,7.764,17.673,17.341,17.673c9.578,0,17.341-7.912,17.341-17.673v-35.34
				H102.624z"/>
			<path fill="#D88B8B" d="M137.307-27.68v35.34c0,9.761,7.764,17.673,17.341,17.673c9.578,0,17.342-7.912,17.342-17.673v-35.34
				H137.307z"/>
			<path fill="#D88B8B" d="M171.99-27.68v35.34c0,9.761,7.763,17.673,17.341,17.673c9.576,0,17.341-7.912,17.341-17.673v-35.34
				H171.99z"/>
			<path fill="#D88B8B" d="M206.672-27.68v35.34c0,9.761,7.763,17.673,17.34,17.673c9.578,0,17.343-7.912,17.343-17.673v-35.34
				H206.672z"/>
			<path fill="#D88B8B" d="M241.355-27.68v35.34c0,9.761,7.764,17.673,17.34,17.673c9.579,0,17.341-7.912,17.341-17.673v-35.34
				H241.355z"/>
			<path fill="#D88B8B" d="M276.037-27.68v35.34c0,9.761,7.764,17.673,17.343,17.673c9.576,0,17.34-7.912,17.34-17.673v-35.34
				H276.037z"/>
			<path fill="#D88B8B" d="M310.72-27.68v35.34c0,9.761,7.765,17.673,17.342,17.673c9.576,0,17.342-7.912,17.342-17.673v-35.34
				H310.72z"/>
			<path fill="#D88B8B" d="M345.404-27.68v35.34c0,9.761,7.764,17.673,17.341,17.673c9.576,0,17.342-7.912,17.342-17.673v-35.34
				H345.404z"/>
			<path fill="#D88B8B" d="M380.087-27.68v35.34c0,9.761,7.763,17.673,17.343,17.673c9.574,0,17.339-7.912,17.339-17.673v-35.34
				H380.087z"/>
			<path fill="#D88B8B" d="M414.769-27.68v35.34c0,9.761,7.765,17.673,17.342,17.673c9.578,0,17.341-7.912,17.341-17.673v-35.34
				H414.769z"/>
			<path fill="#D88B8B" d="M449.451-27.68v35.34c0,9.761,7.765,17.673,17.342,17.673s17.342-7.912,17.342-17.673v-35.34H449.451z"/>
			<path fill="#D88B8B" d="M484.135-27.68v35.34c0,9.761,7.765,17.673,17.341,17.673c9.577,0,17.342-7.912,17.342-17.673v-35.34
				H484.135z"/>
			<path fill="#D88B8B" d="M518.817-27.68v35.34c0,9.761,7.765,17.673,17.343,17.673c9.575,0,17.34-7.912,17.34-17.673v-35.34
				H518.817z"/>
			<path fill="#D88B8B" d="M553.5-27.68v35.34c0,9.761,7.764,17.673,17.341,17.673c9.578,0,17.342-7.912,17.342-17.673v-35.34H553.5
				z"/>
			<path fill="#D88B8B" d="M588.183-27.68v35.34c0,9.761,7.765,17.673,17.341,17.673c9.578,0,17.342-7.912,17.342-17.673v-35.34
				H588.183z"/>
			<path fill="#D88B8B" d="M622.865-27.68v35.34c0,9.761,7.765,17.673,17.342,17.673c9.576,0,17.341-7.912,17.341-17.673v-35.34
				H622.865z"/>
		</g>
		<g>
			<path fill="#DD9B9B" d="M-1.425-54.187v35.34c0,9.761,7.764,17.673,17.341,17.673s17.342-7.912,17.342-17.673v-35.34H-1.425z"/>
			<path fill="#DD9B9B" d="M33.258-54.187v35.34c0,9.761,7.763,17.673,17.341,17.673c9.577,0,17.341-7.912,17.341-17.673v-35.34
				H33.258z"/>
			<path fill="#DD9B9B" d="M67.941-54.187v35.34c0,9.761,7.763,17.673,17.341,17.673c9.579,0,17.342-7.912,17.342-17.673v-35.34
				H67.941z"/>
			<path fill="#DD9B9B" d="M102.624-54.187v35.34c0,9.761,7.764,17.673,17.341,17.673c9.578,0,17.341-7.912,17.341-17.673v-35.34
				H102.624z"/>
			<path fill="#DD9B9B" d="M137.307-54.187v35.34c0,9.761,7.764,17.673,17.341,17.673c9.578,0,17.342-7.912,17.342-17.673v-35.34
				H137.307z"/>
			<path fill="#DD9B9B" d="M171.99-54.187v35.34c0,9.761,7.763,17.673,17.341,17.673c9.576,0,17.341-7.912,17.341-17.673v-35.34
				H171.99z"/>
			<path fill="#DD9B9B" d="M206.672-54.187v35.34c0,9.761,7.763,17.673,17.34,17.673c9.578,0,17.343-7.912,17.343-17.673v-35.34
				H206.672z"/>
			<path fill="#DD9B9B" d="M241.355-54.187v35.34c0,9.761,7.764,17.673,17.34,17.673c9.579,0,17.341-7.912,17.341-17.673v-35.34
				H241.355z"/>
			<path fill="#DD9B9B" d="M276.037-54.187v35.34c0,9.761,7.764,17.673,17.343,17.673c9.576,0,17.34-7.912,17.34-17.673v-35.34
				H276.037z"/>
			<path fill="#DD9B9B" d="M310.72-54.187v35.34c0,9.761,7.765,17.673,17.342,17.673c9.576,0,17.342-7.912,17.342-17.673v-35.34
				H310.72z"/>
			<path fill="#DD9B9B" d="M345.404-54.187v35.34c0,9.761,7.764,17.673,17.341,17.673c9.576,0,17.342-7.912,17.342-17.673v-35.34
				H345.404z"/>
			<path fill="#DD9B9B" d="M380.087-54.187v35.34c0,9.761,7.763,17.673,17.343,17.673c9.574,0,17.339-7.912,17.339-17.673v-35.34
				H380.087z"/>
			<path fill="#DD9B9B" d="M414.769-54.187v35.34c0,9.761,7.765,17.673,17.342,17.673c9.578,0,17.341-7.912,17.341-17.673v-35.34
				H414.769z"/>
			<path fill="#DD9B9B" d="M449.451-54.187v35.34c0,9.761,7.765,17.673,17.342,17.673s17.342-7.912,17.342-17.673v-35.34H449.451z"
				/>
			<path fill="#DD9B9B" d="M484.135-54.187v35.34c0,9.761,7.765,17.673,17.341,17.673c9.577,0,17.342-7.912,17.342-17.673v-35.34
				H484.135z"/>
			<path fill="#DD9B9B" d="M518.817-54.187v35.34c0,9.761,7.765,17.673,17.343,17.673c9.575,0,17.34-7.912,17.34-17.673v-35.34
				H518.817z"/>
			<path fill="#DD9B9B" d="M553.5-54.187v35.34c0,9.761,7.764,17.673,17.341,17.673c9.578,0,17.342-7.912,17.342-17.673v-35.34
				H553.5z"/>
			<path fill="#DD9B9B" d="M588.183-54.187v35.34c0,9.761,7.765,17.673,17.341,17.673c9.578,0,17.342-7.912,17.342-17.673v-35.34
				H588.183z"/>
			<path fill="#DD9B9B" d="M622.865-54.187v35.34c0,9.761,7.765,17.673,17.342,17.673c9.576,0,17.341-7.912,17.341-17.673v-35.34
				H622.865z"/>
		</g>
	</g>
</g>
<g>
	<g>
		<path fill="#A54141" d="M30.699-147.868v33.618c0,9.285,7.385,16.812,16.496,16.812c9.11,0,16.496-7.526,16.496-16.812v-33.618
			H30.699z"/>
		<path fill="#A54141" d="M63.691-147.868v33.618c0,9.285,7.385,16.812,16.496,16.812s16.496-7.526,16.496-16.812v-33.618H63.691z"
			/>
		<path fill="#A54141" d="M96.683-147.868v33.618c0,9.285,7.385,16.812,16.496,16.812s16.496-7.526,16.496-16.812v-33.618H96.683z"
			/>
		<path fill="#A54141" d="M129.675-147.868v33.618c0,9.285,7.386,16.812,16.496,16.812c9.111,0,16.496-7.526,16.496-16.812v-33.618
			H129.675z"/>
		<path fill="#A54141" d="M162.667-147.868v33.618c0,9.285,7.386,16.812,16.496,16.812c9.111,0,16.497-7.526,16.497-16.812v-33.618
			H162.667z"/>
		<path fill="#A54141" d="M195.659-147.868v33.618c0,9.285,7.385,16.812,16.496,16.812c9.11,0,16.496-7.526,16.496-16.812v-33.618
			H195.659z"/>
		<path fill="#A54141" d="M228.651-147.868v33.618c0,9.285,7.385,16.812,16.495,16.812c9.111,0,16.497-7.526,16.497-16.812v-33.618
			H228.651z"/>
		<path fill="#A54141" d="M261.644-147.868v33.618c0,9.285,7.386,16.812,16.495,16.812c9.112,0,16.496-7.526,16.496-16.812v-33.618
			H261.644z"/>
		<path fill="#A54141" d="M294.635-147.868v33.618c0,9.285,7.386,16.812,16.497,16.812c9.11,0,16.496-7.526,16.496-16.812v-33.618
			H294.635z"/>
		<path fill="#A54141" d="M327.627-147.868v33.618c0,9.285,7.387,16.812,16.497,16.812c9.109,0,16.496-7.526,16.496-16.812v-33.618
			H327.627z"/>
		<path fill="#A54141" d="M360.62-147.868v33.618c0,9.285,7.386,16.812,16.496,16.812c9.109,0,16.496-7.526,16.496-16.812v-33.618
			H360.62z"/>
		<path fill="#A54141" d="M393.612-147.868v33.618c0,9.285,7.385,16.812,16.497,16.812c9.107,0,16.494-7.526,16.494-16.812v-33.618
			H393.612z"/>
		<path fill="#A54141" d="M426.604-147.868v33.618c0,9.285,7.386,16.812,16.496,16.812c9.111,0,16.496-7.526,16.496-16.812v-33.618
			H426.604z"/>
		<path fill="#A54141" d="M459.596-147.868v33.618c0,9.285,7.386,16.812,16.496,16.812s16.496-7.526,16.496-16.812v-33.618H459.596z
			"/>
		<path fill="#A54141" d="M492.588-147.868v33.618c0,9.285,7.387,16.812,16.496,16.812c9.11,0,16.496-7.526,16.496-16.812v-33.618
			H492.588z"/>
		<path fill="#A54141" d="M525.58-147.868v33.618c0,9.285,7.386,16.812,16.497,16.812c9.108,0,16.495-7.526,16.495-16.812v-33.618
			H525.58z"/>
		<path fill="#A54141" d="M558.572-147.868v33.618c0,9.285,7.385,16.812,16.495,16.812c9.111,0,16.497-7.526,16.497-16.812v-33.618
			H558.572z"/>
		<path fill="#A54141" d="M591.564-147.868v33.618c0,9.285,7.386,16.812,16.495,16.812c9.111,0,16.496-7.526,16.496-16.812v-33.618
			H591.564z"/>
		<path fill="#A54141" d="M624.556-147.868v33.618c0,9.285,7.387,16.812,16.497,16.812c9.109,0,16.495-7.526,16.495-16.812v-33.618
			H624.556z"/>
	</g>
	<g>
		<path fill="#AD4545" d="M30.699-173.083v33.618c0,9.285,7.385,16.812,16.496,16.812c9.11,0,16.496-7.526,16.496-16.812v-33.618
			H30.699z"/>
		<path fill="#AD4545" d="M63.691-173.083v33.618c0,9.285,7.385,16.812,16.496,16.812s16.496-7.526,16.496-16.812v-33.618H63.691z"
			/>
		<path fill="#AD4545" d="M96.683-173.083v33.618c0,9.285,7.385,16.812,16.496,16.812s16.496-7.526,16.496-16.812v-33.618H96.683z"
			/>
		<path fill="#AD4545" d="M129.675-173.083v33.618c0,9.285,7.386,16.812,16.496,16.812c9.111,0,16.496-7.526,16.496-16.812v-33.618
			H129.675z"/>
		<path fill="#AD4545" d="M162.667-173.083v33.618c0,9.285,7.386,16.812,16.496,16.812c9.111,0,16.497-7.526,16.497-16.812v-33.618
			H162.667z"/>
		<path fill="#AD4545" d="M195.659-173.083v33.618c0,9.285,7.385,16.812,16.496,16.812c9.11,0,16.496-7.526,16.496-16.812v-33.618
			H195.659z"/>
		<path fill="#AD4545" d="M228.651-173.083v33.618c0,9.285,7.385,16.812,16.495,16.812c9.111,0,16.497-7.526,16.497-16.812v-33.618
			H228.651z"/>
		<path fill="#AD4545" d="M261.644-173.083v33.618c0,9.285,7.386,16.812,16.495,16.812c9.112,0,16.496-7.526,16.496-16.812v-33.618
			H261.644z"/>
		<path fill="#AD4545" d="M294.635-173.083v33.618c0,9.285,7.386,16.812,16.497,16.812c9.11,0,16.496-7.526,16.496-16.812v-33.618
			H294.635z"/>
		<path fill="#AD4545" d="M327.627-173.083v33.618c0,9.285,7.387,16.812,16.497,16.812c9.109,0,16.496-7.526,16.496-16.812v-33.618
			H327.627z"/>
		<path fill="#AD4545" d="M360.62-173.083v33.618c0,9.285,7.386,16.812,16.496,16.812c9.109,0,16.496-7.526,16.496-16.812v-33.618
			H360.62z"/>
		<path fill="#AD4545" d="M393.612-173.083v33.618c0,9.285,7.385,16.812,16.497,16.812c9.107,0,16.494-7.526,16.494-16.812v-33.618
			H393.612z"/>
		<path fill="#AD4545" d="M426.604-173.083v33.618c0,9.285,7.386,16.812,16.496,16.812c9.111,0,16.496-7.526,16.496-16.812v-33.618
			H426.604z"/>
		<path fill="#AD4545" d="M459.596-173.083v33.618c0,9.285,7.386,16.812,16.496,16.812s16.496-7.526,16.496-16.812v-33.618H459.596z
			"/>
		<path fill="#AD4545" d="M492.588-173.083v33.618c0,9.285,7.387,16.812,16.496,16.812c9.11,0,16.496-7.526,16.496-16.812v-33.618
			H492.588z"/>
		<path fill="#AD4545" d="M525.58-173.083v33.618c0,9.285,7.386,16.812,16.497,16.812c9.108,0,16.495-7.526,16.495-16.812v-33.618
			H525.58z"/>
		<path fill="#AD4545" d="M558.572-173.083v33.618c0,9.285,7.385,16.812,16.495,16.812c9.111,0,16.497-7.526,16.497-16.812v-33.618
			H558.572z"/>
		<path fill="#AD4545" d="M591.564-173.083v33.618c0,9.285,7.386,16.812,16.495,16.812c9.111,0,16.496-7.526,16.496-16.812v-33.618
			H591.564z"/>
		<path fill="#AD4545" d="M624.556-173.083v33.618c0,9.285,7.387,16.812,16.497,16.812c9.109,0,16.495-7.526,16.495-16.812v-33.618
			H624.556z"/>
	</g>
	<g>
		<path fill="#BC4B4B" d="M30.699-198.298v33.618c0,9.285,7.385,16.812,16.496,16.812c9.11,0,16.496-7.526,16.496-16.812v-33.618
			H30.699z"/>
		<path fill="#BC4B4B" d="M63.691-198.298v33.618c0,9.285,7.385,16.812,16.496,16.812s16.496-7.526,16.496-16.812v-33.618H63.691z"
			/>
		<path fill="#BC4B4B" d="M96.683-198.298v33.618c0,9.285,7.385,16.812,16.496,16.812s16.496-7.526,16.496-16.812v-33.618H96.683z"
			/>
		<path fill="#BC4B4B" d="M129.675-198.298v33.618c0,9.285,7.386,16.812,16.496,16.812c9.111,0,16.496-7.526,16.496-16.812v-33.618
			H129.675z"/>
		<path fill="#BC4B4B" d="M162.667-198.298v33.618c0,9.285,7.386,16.812,16.496,16.812c9.111,0,16.497-7.526,16.497-16.812v-33.618
			H162.667z"/>
		<path fill="#BC4B4B" d="M195.659-198.298v33.618c0,9.285,7.385,16.812,16.496,16.812c9.11,0,16.496-7.526,16.496-16.812v-33.618
			H195.659z"/>
		<path fill="#BC4B4B" d="M228.651-198.298v33.618c0,9.285,7.385,16.812,16.495,16.812c9.111,0,16.497-7.526,16.497-16.812v-33.618
			H228.651z"/>
		<path fill="#BC4B4B" d="M261.644-198.298v33.618c0,9.285,7.386,16.812,16.495,16.812c9.112,0,16.496-7.526,16.496-16.812v-33.618
			H261.644z"/>
		<path fill="#BC4B4B" d="M294.635-198.298v33.618c0,9.285,7.386,16.812,16.497,16.812c9.11,0,16.496-7.526,16.496-16.812v-33.618
			H294.635z"/>
		<path fill="#BC4B4B" d="M327.627-198.298v33.618c0,9.285,7.387,16.812,16.497,16.812c9.109,0,16.496-7.526,16.496-16.812v-33.618
			H327.627z"/>
		<path fill="#BC4B4B" d="M360.62-198.298v33.618c0,9.285,7.386,16.812,16.496,16.812c9.109,0,16.496-7.526,16.496-16.812v-33.618
			H360.62z"/>
		<path fill="#BC4B4B" d="M393.612-198.298v33.618c0,9.285,7.385,16.812,16.497,16.812c9.107,0,16.494-7.526,16.494-16.812v-33.618
			H393.612z"/>
		<path fill="#BC4B4B" d="M426.604-198.298v33.618c0,9.285,7.386,16.812,16.496,16.812c9.111,0,16.496-7.526,16.496-16.812v-33.618
			H426.604z"/>
		<path fill="#BC4B4B" d="M459.596-198.298v33.618c0,9.285,7.386,16.812,16.496,16.812s16.496-7.526,16.496-16.812v-33.618H459.596z
			"/>
		<path fill="#BC4B4B" d="M492.588-198.298v33.618c0,9.285,7.387,16.812,16.496,16.812c9.11,0,16.496-7.526,16.496-16.812v-33.618
			H492.588z"/>
		<path fill="#BC4B4B" d="M525.58-198.298v33.618c0,9.285,7.386,16.812,16.497,16.812c9.108,0,16.495-7.526,16.495-16.812v-33.618
			H525.58z"/>
		<path fill="#BC4B4B" d="M558.572-198.298v33.618c0,9.285,7.385,16.812,16.495,16.812c9.111,0,16.497-7.526,16.497-16.812v-33.618
			H558.572z"/>
		<path fill="#BC4B4B" d="M591.564-198.298v33.618c0,9.285,7.386,16.812,16.495,16.812c9.111,0,16.496-7.526,16.496-16.812v-33.618
			H591.564z"/>
		<path fill="#BC4B4B" d="M624.556-198.298v33.618c0,9.285,7.387,16.812,16.497,16.812c9.109,0,16.495-7.526,16.495-16.812v-33.618
			H624.556z"/>
	</g>
	<g>
		<path fill="#CD5C5C" d="M30.699-223.513v33.618c0,9.285,7.385,16.812,16.496,16.812c9.11,0,16.496-7.526,16.496-16.812v-33.618
			H30.699z"/>
		<path fill="#CD5C5C" d="M63.691-223.513v33.618c0,9.285,7.385,16.812,16.496,16.812s16.496-7.526,16.496-16.812v-33.618H63.691z"
			/>
		<path fill="#CD5C5C" d="M96.683-223.513v33.618c0,9.285,7.385,16.812,16.496,16.812s16.496-7.526,16.496-16.812v-33.618H96.683z"
			/>
		<path fill="#CD5C5C" d="M129.675-223.513v33.618c0,9.285,7.386,16.812,16.496,16.812c9.111,0,16.496-7.526,16.496-16.812v-33.618
			H129.675z"/>
		<path fill="#CD5C5C" d="M162.667-223.513v33.618c0,9.285,7.386,16.812,16.496,16.812c9.111,0,16.497-7.526,16.497-16.812v-33.618
			H162.667z"/>
		<path fill="#CD5C5C" d="M195.659-223.513v33.618c0,9.285,7.385,16.812,16.496,16.812c9.11,0,16.496-7.526,16.496-16.812v-33.618
			H195.659z"/>
		<path fill="#CD5C5C" d="M228.651-223.513v33.618c0,9.285,7.385,16.812,16.495,16.812c9.111,0,16.497-7.526,16.497-16.812v-33.618
			H228.651z"/>
		<path fill="#CD5C5C" d="M261.644-223.513v33.618c0,9.285,7.386,16.812,16.495,16.812c9.112,0,16.496-7.526,16.496-16.812v-33.618
			H261.644z"/>
		<path fill="#CD5C5C" d="M294.635-223.513v33.618c0,9.285,7.386,16.812,16.497,16.812c9.11,0,16.496-7.526,16.496-16.812v-33.618
			H294.635z"/>
		<path fill="#CD5C5C" d="M327.627-223.513v33.618c0,9.285,7.387,16.812,16.497,16.812c9.109,0,16.496-7.526,16.496-16.812v-33.618
			H327.627z"/>
		<path fill="#CD5C5C" d="M360.62-223.513v33.618c0,9.285,7.386,16.812,16.496,16.812c9.109,0,16.496-7.526,16.496-16.812v-33.618
			H360.62z"/>
		<path fill="#CD5C5C" d="M393.612-223.513v33.618c0,9.285,7.385,16.812,16.497,16.812c9.107,0,16.494-7.526,16.494-16.812v-33.618
			H393.612z"/>
		<path fill="#CD5C5C" d="M426.604-223.513v33.618c0,9.285,7.386,16.812,16.496,16.812c9.111,0,16.496-7.526,16.496-16.812v-33.618
			H426.604z"/>
		<path fill="#CD5C5C" d="M459.596-223.513v33.618c0,9.285,7.386,16.812,16.496,16.812s16.496-7.526,16.496-16.812v-33.618H459.596z
			"/>
		<path fill="#CD5C5C" d="M492.588-223.513v33.618c0,9.285,7.387,16.812,16.496,16.812c9.11,0,16.496-7.526,16.496-16.812v-33.618
			H492.588z"/>
		<path fill="#CD5C5C" d="M525.58-223.513v33.618c0,9.285,7.386,16.812,16.497,16.812c9.108,0,16.495-7.526,16.495-16.812v-33.618
			H525.58z"/>
		<path fill="#CD5C5C" d="M558.572-223.513v33.618c0,9.285,7.385,16.812,16.495,16.812c9.111,0,16.497-7.526,16.497-16.812v-33.618
			H558.572z"/>
		<path fill="#CD5C5C" d="M591.564-223.513v33.618c0,9.285,7.386,16.812,16.495,16.812c9.111,0,16.496-7.526,16.496-16.812v-33.618
			H591.564z"/>
		<path fill="#CD5C5C" d="M624.556-223.513v33.618c0,9.285,7.387,16.812,16.497,16.812c9.109,0,16.495-7.526,16.495-16.812v-33.618
			H624.556z"/>
	</g>
	<g>
		<path fill="#D66B6B" d="M30.699-248.728v33.618c0,9.285,7.385,16.812,16.496,16.812c9.11,0,16.496-7.526,16.496-16.812v-33.618
			H30.699z"/>
		<path fill="#D66B6B" d="M63.691-248.728v33.618c0,9.285,7.385,16.812,16.496,16.812s16.496-7.526,16.496-16.812v-33.618H63.691z"
			/>
		<path fill="#D66B6B" d="M96.683-248.728v33.618c0,9.285,7.385,16.812,16.496,16.812s16.496-7.526,16.496-16.812v-33.618H96.683z"
			/>
		<path fill="#D66B6B" d="M129.675-248.728v33.618c0,9.285,7.386,16.812,16.496,16.812c9.111,0,16.496-7.526,16.496-16.812v-33.618
			H129.675z"/>
		<path fill="#D66B6B" d="M162.667-248.728v33.618c0,9.285,7.386,16.812,16.496,16.812c9.111,0,16.497-7.526,16.497-16.812v-33.618
			H162.667z"/>
		<path fill="#D66B6B" d="M195.659-248.728v33.618c0,9.285,7.385,16.812,16.496,16.812c9.11,0,16.496-7.526,16.496-16.812v-33.618
			H195.659z"/>
		<path fill="#D66B6B" d="M228.651-248.728v33.618c0,9.285,7.385,16.812,16.495,16.812c9.111,0,16.497-7.526,16.497-16.812v-33.618
			H228.651z"/>
		<path fill="#D66B6B" d="M261.644-248.728v33.618c0,9.285,7.386,16.812,16.495,16.812c9.112,0,16.496-7.526,16.496-16.812v-33.618
			H261.644z"/>
		<path fill="#D66B6B" d="M294.635-248.728v33.618c0,9.285,7.386,16.812,16.497,16.812c9.11,0,16.496-7.526,16.496-16.812v-33.618
			H294.635z"/>
		<path fill="#D66B6B" d="M327.627-248.728v33.618c0,9.285,7.387,16.812,16.497,16.812c9.109,0,16.496-7.526,16.496-16.812v-33.618
			H327.627z"/>
		<path fill="#D66B6B" d="M360.62-248.728v33.618c0,9.285,7.386,16.812,16.496,16.812c9.109,0,16.496-7.526,16.496-16.812v-33.618
			H360.62z"/>
		<path fill="#D66B6B" d="M393.612-248.728v33.618c0,9.285,7.385,16.812,16.497,16.812c9.107,0,16.494-7.526,16.494-16.812v-33.618
			H393.612z"/>
		<path fill="#D66B6B" d="M426.604-248.728v33.618c0,9.285,7.386,16.812,16.496,16.812c9.111,0,16.496-7.526,16.496-16.812v-33.618
			H426.604z"/>
		<path fill="#D66B6B" d="M459.596-248.728v33.618c0,9.285,7.386,16.812,16.496,16.812s16.496-7.526,16.496-16.812v-33.618H459.596z
			"/>
		<path fill="#D66B6B" d="M492.588-248.728v33.618c0,9.285,7.387,16.812,16.496,16.812c9.11,0,16.496-7.526,16.496-16.812v-33.618
			H492.588z"/>
		<path fill="#D66B6B" d="M525.58-248.728v33.618c0,9.285,7.386,16.812,16.497,16.812c9.108,0,16.495-7.526,16.495-16.812v-33.618
			H525.58z"/>
		<path fill="#D66B6B" d="M558.572-248.728v33.618c0,9.285,7.385,16.812,16.495,16.812c9.111,0,16.497-7.526,16.497-16.812v-33.618
			H558.572z"/>
		<path fill="#D66B6B" d="M591.564-248.728v33.618c0,9.285,7.386,16.812,16.495,16.812c9.111,0,16.496-7.526,16.496-16.812v-33.618
			H591.564z"/>
		<path fill="#D66B6B" d="M624.556-248.728v33.618c0,9.285,7.387,16.812,16.497,16.812c9.109,0,16.495-7.526,16.495-16.812v-33.618
			H624.556z"/>
	</g>
	<g>
		<path fill="#DD7C7C" d="M30.699-273.942v33.618c0,9.285,7.385,16.812,16.496,16.812c9.11,0,16.496-7.526,16.496-16.812v-33.618
			H30.699z"/>
		<path fill="#DD7C7C" d="M63.691-273.942v33.618c0,9.285,7.385,16.812,16.496,16.812s16.496-7.526,16.496-16.812v-33.618H63.691z"
			/>
		<path fill="#DD7C7C" d="M96.683-273.942v33.618c0,9.285,7.385,16.812,16.496,16.812s16.496-7.526,16.496-16.812v-33.618H96.683z"
			/>
		<path fill="#DD7C7C" d="M129.675-273.942v33.618c0,9.285,7.386,16.812,16.496,16.812c9.111,0,16.496-7.526,16.496-16.812v-33.618
			H129.675z"/>
		<path fill="#DD7C7C" d="M162.667-273.942v33.618c0,9.285,7.386,16.812,16.496,16.812c9.111,0,16.497-7.526,16.497-16.812v-33.618
			H162.667z"/>
		<path fill="#DD7C7C" d="M195.659-273.942v33.618c0,9.285,7.385,16.812,16.496,16.812c9.11,0,16.496-7.526,16.496-16.812v-33.618
			H195.659z"/>
		<path fill="#DD7C7C" d="M228.651-273.942v33.618c0,9.285,7.385,16.812,16.495,16.812c9.111,0,16.497-7.526,16.497-16.812v-33.618
			H228.651z"/>
		<path fill="#DD7C7C" d="M261.644-273.942v33.618c0,9.285,7.386,16.812,16.495,16.812c9.112,0,16.496-7.526,16.496-16.812v-33.618
			H261.644z"/>
		<path fill="#DD7C7C" d="M294.635-273.942v33.618c0,9.285,7.386,16.812,16.497,16.812c9.11,0,16.496-7.526,16.496-16.812v-33.618
			H294.635z"/>
		<path fill="#DD7C7C" d="M327.627-273.942v33.618c0,9.285,7.387,16.812,16.497,16.812c9.109,0,16.496-7.526,16.496-16.812v-33.618
			H327.627z"/>
		<path fill="#DD7C7C" d="M360.62-273.942v33.618c0,9.285,7.386,16.812,16.496,16.812c9.109,0,16.496-7.526,16.496-16.812v-33.618
			H360.62z"/>
		<path fill="#DD7C7C" d="M393.612-273.942v33.618c0,9.285,7.385,16.812,16.497,16.812c9.107,0,16.494-7.526,16.494-16.812v-33.618
			H393.612z"/>
		<path fill="#DD7C7C" d="M426.604-273.942v33.618c0,9.285,7.386,16.812,16.496,16.812c9.111,0,16.496-7.526,16.496-16.812v-33.618
			H426.604z"/>
		<path fill="#DD7C7C" d="M459.596-273.942v33.618c0,9.285,7.386,16.812,16.496,16.812s16.496-7.526,16.496-16.812v-33.618H459.596z
			"/>
		<path fill="#DD7C7C" d="M492.588-273.942v33.618c0,9.285,7.387,16.812,16.496,16.812c9.11,0,16.496-7.526,16.496-16.812v-33.618
			H492.588z"/>
		<path fill="#DD7C7C" d="M525.58-273.942v33.618c0,9.285,7.386,16.812,16.497,16.812c9.108,0,16.495-7.526,16.495-16.812v-33.618
			H525.58z"/>
		<path fill="#DD7C7C" d="M558.572-273.942v33.618c0,9.285,7.385,16.812,16.495,16.812c9.111,0,16.497-7.526,16.497-16.812v-33.618
			H558.572z"/>
		<path fill="#DD7C7C" d="M591.564-273.942v33.618c0,9.285,7.386,16.812,16.495,16.812c9.111,0,16.496-7.526,16.496-16.812v-33.618
			H591.564z"/>
		<path fill="#DD7C7C" d="M624.556-273.942v33.618c0,9.285,7.387,16.812,16.497,16.812c9.109,0,16.495-7.526,16.495-16.812v-33.618
			H624.556z"/>
	</g>
	<g>
		<path fill="#D88B8B" d="M30.699-299.157v33.618c0,9.285,7.385,16.812,16.496,16.812c9.11,0,16.496-7.526,16.496-16.812v-33.618
			H30.699z"/>
		<path fill="#D88B8B" d="M63.691-299.157v33.618c0,9.285,7.385,16.812,16.496,16.812s16.496-7.526,16.496-16.812v-33.618H63.691z"
			/>
		<path fill="#D88B8B" d="M96.683-299.157v33.618c0,9.285,7.385,16.812,16.496,16.812s16.496-7.526,16.496-16.812v-33.618H96.683z"
			/>
		<path fill="#D88B8B" d="M129.675-299.157v33.618c0,9.285,7.386,16.812,16.496,16.812c9.111,0,16.496-7.526,16.496-16.812v-33.618
			H129.675z"/>
		<path fill="#D88B8B" d="M162.667-299.157v33.618c0,9.285,7.386,16.812,16.496,16.812c9.111,0,16.497-7.526,16.497-16.812v-33.618
			H162.667z"/>
		<path fill="#D88B8B" d="M195.659-299.157v33.618c0,9.285,7.385,16.812,16.496,16.812c9.11,0,16.496-7.526,16.496-16.812v-33.618
			H195.659z"/>
		<path fill="#D88B8B" d="M228.651-299.157v33.618c0,9.285,7.385,16.812,16.495,16.812c9.111,0,16.497-7.526,16.497-16.812v-33.618
			H228.651z"/>
		<path fill="#D88B8B" d="M261.644-299.157v33.618c0,9.285,7.386,16.812,16.495,16.812c9.112,0,16.496-7.526,16.496-16.812v-33.618
			H261.644z"/>
		<path fill="#D88B8B" d="M294.635-299.157v33.618c0,9.285,7.386,16.812,16.497,16.812c9.11,0,16.496-7.526,16.496-16.812v-33.618
			H294.635z"/>
		<path fill="#D88B8B" d="M327.627-299.157v33.618c0,9.285,7.387,16.812,16.497,16.812c9.109,0,16.496-7.526,16.496-16.812v-33.618
			H327.627z"/>
		<path fill="#D88B8B" d="M360.62-299.157v33.618c0,9.285,7.386,16.812,16.496,16.812c9.109,0,16.496-7.526,16.496-16.812v-33.618
			H360.62z"/>
		<path fill="#D88B8B" d="M393.612-299.157v33.618c0,9.285,7.385,16.812,16.497,16.812c9.107,0,16.494-7.526,16.494-16.812v-33.618
			H393.612z"/>
		<path fill="#D88B8B" d="M426.604-299.157v33.618c0,9.285,7.386,16.812,16.496,16.812c9.111,0,16.496-7.526,16.496-16.812v-33.618
			H426.604z"/>
		<path fill="#D88B8B" d="M459.596-299.157v33.618c0,9.285,7.386,16.812,16.496,16.812s16.496-7.526,16.496-16.812v-33.618H459.596z
			"/>
		<path fill="#D88B8B" d="M492.588-299.157v33.618c0,9.285,7.387,16.812,16.496,16.812c9.11,0,16.496-7.526,16.496-16.812v-33.618
			H492.588z"/>
		<path fill="#D88B8B" d="M525.58-299.157v33.618c0,9.285,7.386,16.812,16.497,16.812c9.108,0,16.495-7.526,16.495-16.812v-33.618
			H525.58z"/>
		<path fill="#D88B8B" d="M558.572-299.157v33.618c0,9.285,7.385,16.812,16.495,16.812c9.111,0,16.497-7.526,16.497-16.812v-33.618
			H558.572z"/>
		<path fill="#D88B8B" d="M591.564-299.157v33.618c0,9.285,7.386,16.812,16.495,16.812c9.111,0,16.496-7.526,16.496-16.812v-33.618
			H591.564z"/>
		<path fill="#D88B8B" d="M624.556-299.157v33.618c0,9.285,7.387,16.812,16.497,16.812c9.109,0,16.495-7.526,16.495-16.812v-33.618
			H624.556z"/>
	</g>
	<g>
		<path fill="#DD9B9B" d="M30.699-324.372v33.618c0,9.285,7.385,16.812,16.496,16.812c9.11,0,16.496-7.526,16.496-16.812v-33.618
			H30.699z"/>
		<path fill="#DD9B9B" d="M63.691-324.372v33.618c0,9.285,7.385,16.812,16.496,16.812s16.496-7.526,16.496-16.812v-33.618H63.691z"
			/>
		<path fill="#DD9B9B" d="M96.683-324.372v33.618c0,9.285,7.385,16.812,16.496,16.812s16.496-7.526,16.496-16.812v-33.618H96.683z"
			/>
		<path fill="#DD9B9B" d="M129.675-324.372v33.618c0,9.285,7.386,16.812,16.496,16.812c9.111,0,16.496-7.526,16.496-16.812v-33.618
			H129.675z"/>
		<path fill="#DD9B9B" d="M162.667-324.372v33.618c0,9.285,7.386,16.812,16.496,16.812c9.111,0,16.497-7.526,16.497-16.812v-33.618
			H162.667z"/>
		<path fill="#DD9B9B" d="M195.659-324.372v33.618c0,9.285,7.385,16.812,16.496,16.812c9.11,0,16.496-7.526,16.496-16.812v-33.618
			H195.659z"/>
		<path fill="#DD9B9B" d="M228.651-324.372v33.618c0,9.285,7.385,16.812,16.495,16.812c9.111,0,16.497-7.526,16.497-16.812v-33.618
			H228.651z"/>
		<path fill="#DD9B9B" d="M261.644-324.372v33.618c0,9.285,7.386,16.812,16.495,16.812c9.112,0,16.496-7.526,16.496-16.812v-33.618
			H261.644z"/>
		<path fill="#DD9B9B" d="M294.635-324.372v33.618c0,9.285,7.386,16.812,16.497,16.812c9.11,0,16.496-7.526,16.496-16.812v-33.618
			H294.635z"/>
		<path fill="#DD9B9B" d="M327.627-324.372v33.618c0,9.285,7.387,16.812,16.497,16.812c9.109,0,16.496-7.526,16.496-16.812v-33.618
			H327.627z"/>
		<path fill="#DD9B9B" d="M360.62-324.372v33.618c0,9.285,7.386,16.812,16.496,16.812c9.109,0,16.496-7.526,16.496-16.812v-33.618
			H360.62z"/>
		<path fill="#DD9B9B" d="M393.612-324.372v33.618c0,9.285,7.385,16.812,16.497,16.812c9.107,0,16.494-7.526,16.494-16.812v-33.618
			H393.612z"/>
		<path fill="#DD9B9B" d="M426.604-324.372v33.618c0,9.285,7.386,16.812,16.496,16.812c9.111,0,16.496-7.526,16.496-16.812v-33.618
			H426.604z"/>
		<path fill="#DD9B9B" d="M459.596-324.372v33.618c0,9.285,7.386,16.812,16.496,16.812s16.496-7.526,16.496-16.812v-33.618H459.596z
			"/>
		<path fill="#DD9B9B" d="M492.588-324.372v33.618c0,9.285,7.387,16.812,16.496,16.812c9.11,0,16.496-7.526,16.496-16.812v-33.618
			H492.588z"/>
		<path fill="#DD9B9B" d="M525.58-324.372v33.618c0,9.285,7.386,16.812,16.497,16.812c9.108,0,16.495-7.526,16.495-16.812v-33.618
			H525.58z"/>
		<path fill="#DD9B9B" d="M558.572-324.372v33.618c0,9.285,7.385,16.812,16.495,16.812c9.111,0,16.497-7.526,16.497-16.812v-33.618
			H558.572z"/>
		<path fill="#DD9B9B" d="M591.564-324.372v33.618c0,9.285,7.386,16.812,16.495,16.812c9.111,0,16.496-7.526,16.496-16.812v-33.618
			H591.564z"/>
		<path fill="#DD9B9B" d="M624.556-324.372v33.618c0,9.285,7.387,16.812,16.497,16.812c9.109,0,16.495-7.526,16.495-16.812v-33.618
			H624.556z"/>
	</g>
</g>
<g>
	<g>
		<g>
			<path fill="#A54141" d="M842.641-147.868v33.618c0,9.285,7.385,16.812,16.496,16.812c9.109,0,16.496-7.526,16.496-16.812v-33.618
				H842.641z"/>
			<path fill="#A54141" d="M875.633-147.868v33.618c0,9.285,7.385,16.812,16.495,16.812s16.496-7.526,16.496-16.812v-33.618H875.633
				z"/>
			<path fill="#A54141" d="M908.624-147.868v33.618c0,9.285,7.386,16.812,16.496,16.812s16.496-7.526,16.496-16.812v-33.618H908.624
				z"/>
			<path fill="#A54141" d="M941.616-147.868v33.618c0,9.285,7.386,16.812,16.496,16.812s16.495-7.526,16.495-16.812v-33.618H941.616
				z"/>
			<path fill="#A54141" d="M974.607-147.868v33.618c0,9.285,7.387,16.812,16.496,16.812c9.111,0,16.497-7.526,16.497-16.812v-33.618
				H974.607z"/>
			<path fill="#A54141" d="M1007.601-147.868v33.618c0,9.285,7.386,16.812,16.496,16.812s16.496-7.526,16.496-16.812v-33.618
				H1007.601z"/>
			<path fill="#A54141" d="M1040.593-147.868v33.618c0,9.285,7.386,16.812,16.495,16.812c9.111,0,16.497-7.526,16.497-16.812
				v-33.618H1040.593z"/>
			<path fill="#A54141" d="M1073.585-147.868v33.618c0,9.285,7.386,16.812,16.495,16.812c9.111,0,16.496-7.526,16.496-16.812
				v-33.618H1073.585z"/>
			<path fill="#A54141" d="M1106.576-147.868v33.618c0,9.285,7.387,16.812,16.496,16.812c9.11,0,16.496-7.526,16.496-16.812v-33.618
				H1106.576z"/>
			<path fill="#A54141" d="M1139.568-147.868v33.618c0,9.285,7.387,16.812,16.497,16.812c9.109,0,16.496-7.526,16.496-16.812
				v-33.618H1139.568z"/>
			<path fill="#A54141" d="M1172.562-147.868v33.618c0,9.285,7.386,16.812,16.496,16.812c9.109,0,16.496-7.526,16.496-16.812
				v-33.618H1172.562z"/>
			<path fill="#A54141" d="M1205.554-147.868v33.618c0,9.285,7.385,16.812,16.497,16.812c9.107,0,16.494-7.526,16.494-16.812
				v-33.618H1205.554z"/>
			<path fill="#A54141" d="M1238.545-147.868v33.618c0,9.285,7.386,16.812,16.496,16.812c9.111,0,16.496-7.526,16.496-16.812
				v-33.618H1238.545z"/>
			<path fill="#A54141" d="M1271.537-147.868v33.618c0,9.285,7.386,16.812,16.496,16.812s16.496-7.526,16.496-16.812v-33.618
				H1271.537z"/>
			<path fill="#A54141" d="M1304.529-147.868v33.618c0,9.285,7.387,16.812,16.496,16.812c9.11,0,16.496-7.526,16.496-16.812v-33.618
				H1304.529z"/>
			<path fill="#A54141" d="M1337.521-147.868v33.618c0,9.285,7.386,16.812,16.497,16.812c9.108,0,16.495-7.526,16.495-16.812
				v-33.618H1337.521z"/>
			<path fill="#A54141" d="M1370.514-147.868v33.618c0,9.285,7.385,16.812,16.495,16.812c9.111,0,16.497-7.526,16.497-16.812
				v-33.618H1370.514z"/>
			<path fill="#A54141" d="M1403.506-147.868v33.618c0,9.285,7.386,16.812,16.495,16.812c9.111,0,16.496-7.526,16.496-16.812
				v-33.618H1403.506z"/>
			<path fill="#A54141" d="M1436.497-147.868v33.618c0,9.285,7.387,16.812,16.497,16.812c9.109,0,16.495-7.526,16.495-16.812
				v-33.618H1436.497z"/>
		</g>
		<g>
			<path fill="#A54141" d="M1469.489-147.868v33.618c0,9.285,7.385,16.812,16.496,16.812c9.109,0,16.496-7.526,16.496-16.812
				v-33.618H1469.489z"/>
			<path fill="#A54141" d="M1502.481-147.868v33.618c0,9.285,7.385,16.812,16.495,16.812s16.496-7.526,16.496-16.812v-33.618
				H1502.481z"/>
			<path fill="#A54141" d="M1535.473-147.868v33.618c0,9.285,7.386,16.812,16.496,16.812s16.496-7.526,16.496-16.812v-33.618
				H1535.473z"/>
			<path fill="#A54141" d="M1568.465-147.868v33.618c0,9.285,7.386,16.812,16.496,16.812s16.495-7.526,16.495-16.812v-33.618
				H1568.465z"/>
			<path fill="#A54141" d="M1601.456-147.868v33.618c0,9.285,7.387,16.812,16.496,16.812c9.111,0,16.497-7.526,16.497-16.812
				v-33.618H1601.456z"/>
			<path fill="#A54141" d="M1634.449-147.868v33.618c0,9.285,7.386,16.812,16.496,16.812s16.496-7.526,16.496-16.812v-33.618
				H1634.449z"/>
			<path fill="#A54141" d="M1667.441-147.868v33.618c0,9.285,7.386,16.812,16.495,16.812c9.111,0,16.497-7.526,16.497-16.812
				v-33.618H1667.441z"/>
			<path fill="#A54141" d="M1700.434-147.868v33.618c0,9.285,7.386,16.812,16.495,16.812c9.111,0,16.496-7.526,16.496-16.812
				v-33.618H1700.434z"/>
			<path fill="#A54141" d="M1733.425-147.868v33.618c0,9.285,7.387,16.812,16.496,16.812c9.11,0,16.496-7.526,16.496-16.812v-33.618
				H1733.425z"/>
			<path fill="#A54141" d="M1766.417-147.868v33.618c0,9.285,7.387,16.812,16.497,16.812c9.109,0,16.496-7.526,16.496-16.812
				v-33.618H1766.417z"/>
			<path fill="#A54141" d="M1799.41-147.868v33.618c0,9.285,7.386,16.812,16.496,16.812c9.109,0,16.496-7.526,16.496-16.812v-33.618
				H1799.41z"/>
			<path fill="#A54141" d="M1832.402-147.868v33.618c0,9.285,7.385,16.812,16.497,16.812c9.107,0,16.494-7.526,16.494-16.812
				v-33.618H1832.402z"/>
			<path fill="#A54141" d="M1865.394-147.868v33.618c0,9.285,7.386,16.812,16.496,16.812c9.111,0,16.496-7.526,16.496-16.812
				v-33.618H1865.394z"/>
			<path fill="#A54141" d="M1898.386-147.868v33.618c0,9.285,7.386,16.812,16.496,16.812s16.496-7.526,16.496-16.812v-33.618
				H1898.386z"/>
			<path fill="#A54141" d="M1931.378-147.868v33.618c0,9.285,7.387,16.812,16.496,16.812c9.11,0,16.496-7.526,16.496-16.812v-33.618
				H1931.378z"/>
			<path fill="#A54141" d="M1964.37-147.868v33.618c0,9.285,7.386,16.812,16.497,16.812c9.108,0,16.495-7.526,16.495-16.812v-33.618
				H1964.37z"/>
			<path fill="#A54141" d="M1997.362-147.868v33.618c0,9.285,7.385,16.812,16.495,16.812c9.111,0,16.497-7.526,16.497-16.812
				v-33.618H1997.362z"/>
			<path fill="#A54141" d="M2030.354-147.868v33.618c0,9.285,7.386,16.812,16.495,16.812c9.111,0,16.496-7.526,16.496-16.812
				v-33.618H2030.354z"/>
			<path fill="#A54141" d="M2063.346-147.868v33.618c0,9.285,7.387,16.812,16.497,16.812c9.109,0,16.495-7.526,16.495-16.812
				v-33.618H2063.346z"/>
		</g>
	</g>
	<g>
		<g>
			<path fill="#AD4545" d="M835.571-173.083v33.618c0,9.285,7.385,16.812,16.496,16.812c9.109,0,16.496-7.526,16.496-16.812v-33.618
				H835.571z"/>
			<path fill="#AD4545" d="M868.563-173.083v33.618c0,9.285,7.385,16.812,16.494,16.812c9.111,0,16.496-7.526,16.496-16.812v-33.618
				H868.563z"/>
			<path fill="#AD4545" d="M901.554-173.083v33.618c0,9.285,7.387,16.812,16.496,16.812c9.111,0,16.496-7.526,16.496-16.812v-33.618
				H901.554z"/>
			<path fill="#AD4545" d="M934.546-173.083v33.618c0,9.285,7.387,16.812,16.496,16.812c9.111,0,16.496-7.526,16.496-16.812v-33.618
				H934.546z"/>
			<path fill="#AD4545" d="M967.538-173.083v33.618c0,9.285,7.387,16.812,16.496,16.812c9.111,0,16.496-7.526,16.496-16.812v-33.618
				H967.538z"/>
			<path fill="#AD4545" d="M1000.53-173.083v33.618c0,9.285,7.387,16.812,16.496,16.812c9.111,0,16.496-7.526,16.496-16.812v-33.618
				H1000.53z"/>
			<path fill="#AD4545" d="M1033.522-173.083v33.618c0,9.285,7.387,16.812,16.496,16.812c9.111,0,16.496-7.526,16.496-16.812
				v-33.618H1033.522z"/>
			<path fill="#AD4545" d="M1066.515-173.083v33.618c0,9.285,7.387,16.812,16.496,16.812c9.111,0,16.496-7.526,16.496-16.812
				v-33.618H1066.515z"/>
			<path fill="#AD4545" d="M1099.507-173.083v33.618c0,9.285,7.387,16.812,16.496,16.812s16.496-7.526,16.496-16.812v-33.618
				H1099.507z"/>
			<path fill="#AD4545" d="M1132.499-173.083v33.618c0,9.285,7.387,16.812,16.496,16.812s16.496-7.526,16.496-16.812v-33.618
				H1132.499z"/>
			<path fill="#AD4545" d="M1165.491-173.083v33.618c0,9.285,7.387,16.812,16.496,16.812s16.496-7.526,16.496-16.812v-33.618
				H1165.491z"/>
			<path fill="#AD4545" d="M1198.483-173.083v33.618c0,9.285,7.385,16.812,16.498,16.812c9.107,0,16.494-7.526,16.494-16.812
				v-33.618H1198.483z"/>
			<path fill="#AD4545" d="M1231.476-173.083v33.618c0,9.285,7.385,16.812,16.496,16.812s16.496-7.526,16.496-16.812v-33.618
				H1231.476z"/>
			<path fill="#AD4545" d="M1264.468-173.083v33.618c0,9.285,7.385,16.812,16.496,16.812c9.109,0,16.496-7.526,16.496-16.812
				v-33.618H1264.468z"/>
			<path fill="#AD4545" d="M1297.46-173.083v33.618c0,9.285,7.387,16.812,16.496,16.812s16.496-7.526,16.496-16.812v-33.618H1297.46
				z"/>
			<path fill="#AD4545" d="M1330.452-173.083v33.618c0,9.285,7.385,16.812,16.496,16.812c9.109,0,16.496-7.526,16.496-16.812
				v-33.618H1330.452z"/>
			<path fill="#AD4545" d="M1363.444-173.083v33.618c0,9.285,7.385,16.812,16.494,16.812c9.111,0,16.498-7.526,16.498-16.812
				v-33.618H1363.444z"/>
			<path fill="#AD4545" d="M1396.437-173.083v33.618c0,9.285,7.385,16.812,16.494,16.812c9.111,0,16.496-7.526,16.496-16.812
				v-33.618H1396.437z"/>
			<path fill="#AD4545" d="M1429.427-173.083v33.618c0,9.285,7.387,16.812,16.498,16.812c9.109,0,16.494-7.526,16.494-16.812
				v-33.618H1429.427z"/>
		</g>
		<g>
			<path fill="#AD4545" d="M1462.42-173.083v33.618c0,9.285,7.385,16.812,16.496,16.812c9.109,0,16.496-7.526,16.496-16.812v-33.618
				H1462.42z"/>
			<path fill="#AD4545" d="M1495.412-173.083v33.618c0,9.285,7.385,16.812,16.494,16.812c9.111,0,16.496-7.526,16.496-16.812
				v-33.618H1495.412z"/>
			<path fill="#AD4545" d="M1528.402-173.083v33.618c0,9.285,7.387,16.812,16.496,16.812c9.111,0,16.496-7.526,16.496-16.812
				v-33.618H1528.402z"/>
			<path fill="#AD4545" d="M1561.395-173.083v33.618c0,9.285,7.387,16.812,16.496,16.812c9.111,0,16.496-7.526,16.496-16.812
				v-33.618H1561.395z"/>
			<path fill="#AD4545" d="M1594.387-173.083v33.618c0,9.285,7.387,16.812,16.496,16.812c9.111,0,16.496-7.526,16.496-16.812
				v-33.618H1594.387z"/>
			<path fill="#AD4545" d="M1627.379-173.083v33.618c0,9.285,7.387,16.812,16.496,16.812c9.111,0,16.496-7.526,16.496-16.812
				v-33.618H1627.379z"/>
			<path fill="#AD4545" d="M1660.371-173.083v33.618c0,9.285,7.387,16.812,16.496,16.812c9.111,0,16.496-7.526,16.496-16.812
				v-33.618H1660.371z"/>
			<path fill="#AD4545" d="M1693.363-173.083v33.618c0,9.285,7.387,16.812,16.496,16.812c9.111,0,16.496-7.526,16.496-16.812
				v-33.618H1693.363z"/>
			<path fill="#AD4545" d="M1726.355-173.083v33.618c0,9.285,7.387,16.812,16.496,16.812s16.496-7.526,16.496-16.812v-33.618
				H1726.355z"/>
			<path fill="#AD4545" d="M1759.348-173.083v33.618c0,9.285,7.387,16.812,16.496,16.812s16.496-7.526,16.496-16.812v-33.618
				H1759.348z"/>
			<path fill="#AD4545" d="M1792.34-173.083v33.618c0,9.285,7.387,16.812,16.496,16.812s16.496-7.526,16.496-16.812v-33.618H1792.34
				z"/>
			<path fill="#AD4545" d="M1825.332-173.083v33.618c0,9.285,7.385,16.812,16.498,16.812c9.107,0,16.494-7.526,16.494-16.812
				v-33.618H1825.332z"/>
			<path fill="#AD4545" d="M1858.324-173.083v33.618c0,9.285,7.385,16.812,16.496,16.812s16.496-7.526,16.496-16.812v-33.618
				H1858.324z"/>
			<path fill="#AD4545" d="M1891.316-173.083v33.618c0,9.285,7.385,16.812,16.496,16.812c9.109,0,16.496-7.526,16.496-16.812
				v-33.618H1891.316z"/>
			<path fill="#AD4545" d="M1924.309-173.083v33.618c0,9.285,7.387,16.812,16.496,16.812s16.496-7.526,16.496-16.812v-33.618
				H1924.309z"/>
			<path fill="#AD4545" d="M1957.301-173.083v33.618c0,9.285,7.385,16.812,16.496,16.812c9.109,0,16.496-7.526,16.496-16.812
				v-33.618H1957.301z"/>
			<path fill="#AD4545" d="M1990.293-173.083v33.618c0,9.285,7.385,16.812,16.494,16.812c9.111,0,16.498-7.526,16.498-16.812
				v-33.618H1990.293z"/>
			<path fill="#AD4545" d="M2023.285-173.083v33.618c0,9.285,7.385,16.812,16.494,16.812c9.111,0,16.496-7.526,16.496-16.812
				v-33.618H2023.285z"/>
			<path fill="#AD4545" d="M2056.275-173.083v33.618c0,9.285,7.387,16.812,16.498,16.812c9.109,0,16.494-7.526,16.494-16.812
				v-33.618H2056.275z"/>
		</g>
	</g>
	<g>
		<g>
			<path fill="#BC4B4B" d="M828.501-198.298v33.618c0,9.285,7.385,16.812,16.496,16.812c9.109,0,16.496-7.526,16.496-16.812v-33.618
				H828.501z"/>
			<path fill="#BC4B4B" d="M861.493-198.298v33.618c0,9.285,7.385,16.812,16.495,16.812s16.496-7.526,16.496-16.812v-33.618H861.493
				z"/>
			<path fill="#BC4B4B" d="M894.484-198.298v33.618c0,9.285,7.386,16.812,16.496,16.812s16.496-7.526,16.496-16.812v-33.618H894.484
				z"/>
			<path fill="#BC4B4B" d="M927.477-198.298v33.618c0,9.285,7.386,16.812,16.496,16.812s16.495-7.526,16.495-16.812v-33.618H927.477
				z"/>
			<path fill="#BC4B4B" d="M960.468-198.298v33.618c0,9.285,7.387,16.812,16.496,16.812c9.111,0,16.497-7.526,16.497-16.812v-33.618
				H960.468z"/>
			<path fill="#BC4B4B" d="M993.461-198.298v33.618c0,9.285,7.386,16.812,16.496,16.812s16.496-7.526,16.496-16.812v-33.618H993.461
				z"/>
			<path fill="#BC4B4B" d="M1026.453-198.298v33.618c0,9.285,7.386,16.812,16.495,16.812c9.111,0,16.497-7.526,16.497-16.812
				v-33.618H1026.453z"/>
			<path fill="#BC4B4B" d="M1059.445-198.298v33.618c0,9.285,7.386,16.812,16.495,16.812c9.111,0,16.496-7.526,16.496-16.812
				v-33.618H1059.445z"/>
			<path fill="#BC4B4B" d="M1092.437-198.298v33.618c0,9.285,7.387,16.812,16.496,16.812c9.11,0,16.496-7.526,16.496-16.812v-33.618
				H1092.437z"/>
			<path fill="#BC4B4B" d="M1125.429-198.298v33.618c0,9.285,7.387,16.812,16.497,16.812c9.109,0,16.496-7.526,16.496-16.812
				v-33.618H1125.429z"/>
			<path fill="#BC4B4B" d="M1158.422-198.298v33.618c0,9.285,7.386,16.812,16.496,16.812c9.109,0,16.496-7.526,16.496-16.812
				v-33.618H1158.422z"/>
			<path fill="#BC4B4B" d="M1191.414-198.298v33.618c0,9.285,7.385,16.812,16.497,16.812c9.107,0,16.494-7.526,16.494-16.812
				v-33.618H1191.414z"/>
			<path fill="#BC4B4B" d="M1224.405-198.298v33.618c0,9.285,7.386,16.812,16.496,16.812c9.111,0,16.496-7.526,16.496-16.812
				v-33.618H1224.405z"/>
			<path fill="#BC4B4B" d="M1257.397-198.298v33.618c0,9.285,7.386,16.812,16.496,16.812s16.496-7.526,16.496-16.812v-33.618
				H1257.397z"/>
			<path fill="#BC4B4B" d="M1290.39-198.298v33.618c0,9.285,7.387,16.812,16.496,16.812c9.11,0,16.496-7.526,16.496-16.812v-33.618
				H1290.39z"/>
			<path fill="#BC4B4B" d="M1323.382-198.298v33.618c0,9.285,7.386,16.812,16.497,16.812c9.108,0,16.495-7.526,16.495-16.812
				v-33.618H1323.382z"/>
			<path fill="#BC4B4B" d="M1356.374-198.298v33.618c0,9.285,7.385,16.812,16.495,16.812c9.111,0,16.497-7.526,16.497-16.812
				v-33.618H1356.374z"/>
			<path fill="#BC4B4B" d="M1389.366-198.298v33.618c0,9.285,7.386,16.812,16.495,16.812c9.111,0,16.496-7.526,16.496-16.812
				v-33.618H1389.366z"/>
			<path fill="#BC4B4B" d="M1422.357-198.298v33.618c0,9.285,7.387,16.812,16.497,16.812c9.109,0,16.495-7.526,16.495-16.812
				v-33.618H1422.357z"/>
		</g>
		<g>
			<path fill="#BC4B4B" d="M1455.35-198.298v33.618c0,9.285,7.385,16.812,16.496,16.812c9.109,0,16.496-7.526,16.496-16.812v-33.618
				H1455.35z"/>
			<path fill="#BC4B4B" d="M1488.342-198.298v33.618c0,9.285,7.385,16.812,16.495,16.812s16.496-7.526,16.496-16.812v-33.618
				H1488.342z"/>
			<path fill="#BC4B4B" d="M1521.333-198.298v33.618c0,9.285,7.386,16.812,16.496,16.812s16.496-7.526,16.496-16.812v-33.618
				H1521.333z"/>
			<path fill="#BC4B4B" d="M1554.325-198.298v33.618c0,9.285,7.386,16.812,16.496,16.812s16.495-7.526,16.495-16.812v-33.618
				H1554.325z"/>
			<path fill="#BC4B4B" d="M1587.316-198.298v33.618c0,9.285,7.387,16.812,16.496,16.812c9.111,0,16.497-7.526,16.497-16.812
				v-33.618H1587.316z"/>
			<path fill="#BC4B4B" d="M1620.31-198.298v33.618c0,9.285,7.386,16.812,16.496,16.812s16.496-7.526,16.496-16.812v-33.618H1620.31
				z"/>
			<path fill="#BC4B4B" d="M1653.302-198.298v33.618c0,9.285,7.386,16.812,16.495,16.812c9.111,0,16.497-7.526,16.497-16.812
				v-33.618H1653.302z"/>
			<path fill="#BC4B4B" d="M1686.294-198.298v33.618c0,9.285,7.386,16.812,16.495,16.812c9.111,0,16.496-7.526,16.496-16.812
				v-33.618H1686.294z"/>
			<path fill="#BC4B4B" d="M1719.285-198.298v33.618c0,9.285,7.387,16.812,16.496,16.812c9.11,0,16.496-7.526,16.496-16.812v-33.618
				H1719.285z"/>
			<path fill="#BC4B4B" d="M1752.277-198.298v33.618c0,9.285,7.387,16.812,16.497,16.812c9.109,0,16.496-7.526,16.496-16.812
				v-33.618H1752.277z"/>
			<path fill="#BC4B4B" d="M1785.271-198.298v33.618c0,9.285,7.386,16.812,16.496,16.812c9.109,0,16.496-7.526,16.496-16.812
				v-33.618H1785.271z"/>
			<path fill="#BC4B4B" d="M1818.263-198.298v33.618c0,9.285,7.385,16.812,16.497,16.812c9.107,0,16.494-7.526,16.494-16.812
				v-33.618H1818.263z"/>
			<path fill="#BC4B4B" d="M1851.254-198.298v33.618c0,9.285,7.386,16.812,16.496,16.812c9.111,0,16.496-7.526,16.496-16.812
				v-33.618H1851.254z"/>
			<path fill="#BC4B4B" d="M1884.246-198.298v33.618c0,9.285,7.386,16.812,16.496,16.812s16.496-7.526,16.496-16.812v-33.618
				H1884.246z"/>
			<path fill="#BC4B4B" d="M1917.238-198.298v33.618c0,9.285,7.387,16.812,16.496,16.812c9.11,0,16.496-7.526,16.496-16.812v-33.618
				H1917.238z"/>
			<path fill="#BC4B4B" d="M1950.23-198.298v33.618c0,9.285,7.386,16.812,16.497,16.812c9.108,0,16.495-7.526,16.495-16.812v-33.618
				H1950.23z"/>
			<path fill="#BC4B4B" d="M1983.223-198.298v33.618c0,9.285,7.385,16.812,16.495,16.812c9.111,0,16.497-7.526,16.497-16.812
				v-33.618H1983.223z"/>
			<path fill="#BC4B4B" d="M2016.215-198.298v33.618c0,9.285,7.386,16.812,16.495,16.812c9.111,0,16.496-7.526,16.496-16.812
				v-33.618H2016.215z"/>
			<path fill="#BC4B4B" d="M2049.206-198.298v33.618c0,9.285,7.387,16.812,16.497,16.812c9.109,0,16.495-7.526,16.495-16.812
				v-33.618H2049.206z"/>
		</g>
	</g>
	<g>
		<g>
			<path fill="#CD5C5C" d="M821.432-223.513v33.618c0,9.285,7.385,16.812,16.496,16.812c9.109,0,16.496-7.526,16.496-16.812v-33.618
				H821.432z"/>
			<path fill="#CD5C5C" d="M854.424-223.513v33.618c0,9.285,7.385,16.812,16.495,16.812s16.496-7.526,16.496-16.812v-33.618H854.424
				z"/>
			<path fill="#CD5C5C" d="M887.415-223.513v33.618c0,9.285,7.386,16.812,16.496,16.812s16.496-7.526,16.496-16.812v-33.618H887.415
				z"/>
			<path fill="#CD5C5C" d="M920.407-223.513v33.618c0,9.285,7.386,16.812,16.496,16.812s16.495-7.526,16.495-16.812v-33.618H920.407
				z"/>
			<path fill="#CD5C5C" d="M953.398-223.513v33.618c0,9.285,7.387,16.812,16.496,16.812c9.111,0,16.497-7.526,16.497-16.812v-33.618
				H953.398z"/>
			<path fill="#CD5C5C" d="M986.392-223.513v33.618c0,9.285,7.386,16.812,16.496,16.812s16.496-7.526,16.496-16.812v-33.618H986.392
				z"/>
			<path fill="#CD5C5C" d="M1019.384-223.513v33.618c0,9.285,7.386,16.812,16.495,16.812c9.111,0,16.497-7.526,16.497-16.812
				v-33.618H1019.384z"/>
			<path fill="#CD5C5C" d="M1052.376-223.513v33.618c0,9.285,7.386,16.812,16.495,16.812c9.111,0,16.496-7.526,16.496-16.812
				v-33.618H1052.376z"/>
			<path fill="#CD5C5C" d="M1085.367-223.513v33.618c0,9.285,7.387,16.812,16.496,16.812c9.11,0,16.496-7.526,16.496-16.812v-33.618
				H1085.367z"/>
			<path fill="#CD5C5C" d="M1118.359-223.513v33.618c0,9.285,7.387,16.812,16.497,16.812c9.109,0,16.496-7.526,16.496-16.812
				v-33.618H1118.359z"/>
			<path fill="#CD5C5C" d="M1151.353-223.513v33.618c0,9.285,7.386,16.812,16.496,16.812c9.109,0,16.496-7.526,16.496-16.812
				v-33.618H1151.353z"/>
			<path fill="#CD5C5C" d="M1184.345-223.513v33.618c0,9.285,7.385,16.812,16.497,16.812c9.107,0,16.494-7.526,16.494-16.812
				v-33.618H1184.345z"/>
			<path fill="#CD5C5C" d="M1217.336-223.513v33.618c0,9.285,7.386,16.812,16.496,16.812c9.111,0,16.496-7.526,16.496-16.812
				v-33.618H1217.336z"/>
			<path fill="#CD5C5C" d="M1250.328-223.513v33.618c0,9.285,7.386,16.812,16.496,16.812s16.496-7.526,16.496-16.812v-33.618
				H1250.328z"/>
			<path fill="#CD5C5C" d="M1283.32-223.513v33.618c0,9.285,7.387,16.812,16.496,16.812c9.11,0,16.496-7.526,16.496-16.812v-33.618
				H1283.32z"/>
			<path fill="#CD5C5C" d="M1316.313-223.513v33.618c0,9.285,7.386,16.812,16.497,16.812c9.108,0,16.495-7.526,16.495-16.812
				v-33.618H1316.313z"/>
			<path fill="#CD5C5C" d="M1349.305-223.513v33.618c0,9.285,7.385,16.812,16.495,16.812c9.111,0,16.497-7.526,16.497-16.812
				v-33.618H1349.305z"/>
			<path fill="#CD5C5C" d="M1382.297-223.513v33.618c0,9.285,7.386,16.812,16.495,16.812c9.111,0,16.496-7.526,16.496-16.812
				v-33.618H1382.297z"/>
			<path fill="#CD5C5C" d="M1415.288-223.513v33.618c0,9.285,7.387,16.812,16.497,16.812c9.109,0,16.495-7.526,16.495-16.812
				v-33.618H1415.288z"/>
		</g>
		<g>
			<path fill="#CD5C5C" d="M1448.28-223.513v33.618c0,9.285,7.385,16.812,16.496,16.812c9.109,0,16.496-7.526,16.496-16.812v-33.618
				H1448.28z"/>
			<path fill="#CD5C5C" d="M1481.272-223.513v33.618c0,9.285,7.385,16.812,16.495,16.812s16.496-7.526,16.496-16.812v-33.618
				H1481.272z"/>
			<path fill="#CD5C5C" d="M1514.264-223.513v33.618c0,9.285,7.386,16.812,16.496,16.812s16.496-7.526,16.496-16.812v-33.618
				H1514.264z"/>
			<path fill="#CD5C5C" d="M1547.256-223.513v33.618c0,9.285,7.386,16.812,16.496,16.812s16.495-7.526,16.495-16.812v-33.618
				H1547.256z"/>
			<path fill="#CD5C5C" d="M1580.247-223.513v33.618c0,9.285,7.387,16.812,16.496,16.812c9.111,0,16.497-7.526,16.497-16.812
				v-33.618H1580.247z"/>
			<path fill="#CD5C5C" d="M1613.24-223.513v33.618c0,9.285,7.386,16.812,16.496,16.812s16.496-7.526,16.496-16.812v-33.618H1613.24
				z"/>
			<path fill="#CD5C5C" d="M1646.232-223.513v33.618c0,9.285,7.386,16.812,16.495,16.812c9.111,0,16.497-7.526,16.497-16.812
				v-33.618H1646.232z"/>
			<path fill="#CD5C5C" d="M1679.225-223.513v33.618c0,9.285,7.386,16.812,16.495,16.812c9.111,0,16.496-7.526,16.496-16.812
				v-33.618H1679.225z"/>
			<path fill="#CD5C5C" d="M1712.216-223.513v33.618c0,9.285,7.387,16.812,16.496,16.812c9.11,0,16.496-7.526,16.496-16.812v-33.618
				H1712.216z"/>
			<path fill="#CD5C5C" d="M1745.208-223.513v33.618c0,9.285,7.387,16.812,16.497,16.812c9.109,0,16.496-7.526,16.496-16.812
				v-33.618H1745.208z"/>
			<path fill="#CD5C5C" d="M1778.201-223.513v33.618c0,9.285,7.386,16.812,16.496,16.812c9.109,0,16.496-7.526,16.496-16.812
				v-33.618H1778.201z"/>
			<path fill="#CD5C5C" d="M1811.193-223.513v33.618c0,9.285,7.385,16.812,16.497,16.812c9.107,0,16.494-7.526,16.494-16.812
				v-33.618H1811.193z"/>
			<path fill="#CD5C5C" d="M1844.185-223.513v33.618c0,9.285,7.386,16.812,16.496,16.812c9.111,0,16.496-7.526,16.496-16.812
				v-33.618H1844.185z"/>
			<path fill="#CD5C5C" d="M1877.177-223.513v33.618c0,9.285,7.386,16.812,16.496,16.812s16.496-7.526,16.496-16.812v-33.618
				H1877.177z"/>
			<path fill="#CD5C5C" d="M1910.169-223.513v33.618c0,9.285,7.387,16.812,16.496,16.812c9.11,0,16.496-7.526,16.496-16.812v-33.618
				H1910.169z"/>
			<path fill="#CD5C5C" d="M1943.161-223.513v33.618c0,9.285,7.386,16.812,16.497,16.812c9.108,0,16.495-7.526,16.495-16.812
				v-33.618H1943.161z"/>
			<path fill="#CD5C5C" d="M1976.153-223.513v33.618c0,9.285,7.385,16.812,16.495,16.812c9.111,0,16.497-7.526,16.497-16.812
				v-33.618H1976.153z"/>
			<path fill="#CD5C5C" d="M2009.146-223.513v33.618c0,9.285,7.386,16.812,16.495,16.812c9.111,0,16.496-7.526,16.496-16.812
				v-33.618H2009.146z"/>
			<path fill="#CD5C5C" d="M2042.137-223.513v33.618c0,9.285,7.387,16.812,16.497,16.812c9.109,0,16.495-7.526,16.495-16.812
				v-33.618H2042.137z"/>
		</g>
	</g>
	<g>
		<g>
			<path fill="#D66B6B" d="M814.362-248.728v33.618c0,9.285,7.385,16.812,16.496,16.812c9.109,0,16.496-7.526,16.496-16.812v-33.618
				H814.362z"/>
			<path fill="#D66B6B" d="M847.354-248.728v33.618c0,9.285,7.385,16.812,16.495,16.812s16.496-7.526,16.496-16.812v-33.618H847.354
				z"/>
			<path fill="#D66B6B" d="M880.346-248.728v33.618c0,9.285,7.386,16.812,16.496,16.812s16.496-7.526,16.496-16.812v-33.618H880.346
				z"/>
			<path fill="#D66B6B" d="M913.338-248.728v33.618c0,9.285,7.386,16.812,16.496,16.812s16.495-7.526,16.495-16.812v-33.618H913.338
				z"/>
			<path fill="#D66B6B" d="M946.329-248.728v33.618c0,9.285,7.387,16.812,16.496,16.812c9.111,0,16.497-7.526,16.497-16.812v-33.618
				H946.329z"/>
			<path fill="#D66B6B" d="M979.322-248.728v33.618c0,9.285,7.386,16.812,16.496,16.812s16.496-7.526,16.496-16.812v-33.618H979.322
				z"/>
			<path fill="#D66B6B" d="M1012.314-248.728v33.618c0,9.285,7.386,16.812,16.495,16.812c9.111,0,16.497-7.526,16.497-16.812
				v-33.618H1012.314z"/>
			<path fill="#D66B6B" d="M1045.307-248.728v33.618c0,9.285,7.386,16.812,16.495,16.812c9.111,0,16.496-7.526,16.496-16.812
				v-33.618H1045.307z"/>
			<path fill="#D66B6B" d="M1078.298-248.728v33.618c0,9.285,7.387,16.812,16.496,16.812c9.11,0,16.496-7.526,16.496-16.812v-33.618
				H1078.298z"/>
			<path fill="#D66B6B" d="M1111.29-248.728v33.618c0,9.285,7.387,16.812,16.497,16.812c9.109,0,16.496-7.526,16.496-16.812v-33.618
				H1111.29z"/>
			<path fill="#D66B6B" d="M1144.283-248.728v33.618c0,9.285,7.386,16.812,16.496,16.812c9.109,0,16.496-7.526,16.496-16.812
				v-33.618H1144.283z"/>
			<path fill="#D66B6B" d="M1177.275-248.728v33.618c0,9.285,7.385,16.812,16.497,16.812c9.107,0,16.494-7.526,16.494-16.812
				v-33.618H1177.275z"/>
			<path fill="#D66B6B" d="M1210.267-248.728v33.618c0,9.285,7.386,16.812,16.496,16.812c9.111,0,16.496-7.526,16.496-16.812
				v-33.618H1210.267z"/>
			<path fill="#D66B6B" d="M1243.259-248.728v33.618c0,9.285,7.386,16.812,16.496,16.812s16.496-7.526,16.496-16.812v-33.618
				H1243.259z"/>
			<path fill="#D66B6B" d="M1276.251-248.728v33.618c0,9.285,7.387,16.812,16.496,16.812c9.11,0,16.496-7.526,16.496-16.812v-33.618
				H1276.251z"/>
			<path fill="#D66B6B" d="M1309.243-248.728v33.618c0,9.285,7.386,16.812,16.497,16.812c9.108,0,16.495-7.526,16.495-16.812
				v-33.618H1309.243z"/>
			<path fill="#D66B6B" d="M1342.235-248.728v33.618c0,9.285,7.385,16.812,16.495,16.812c9.111,0,16.497-7.526,16.497-16.812
				v-33.618H1342.235z"/>
			<path fill="#D66B6B" d="M1375.228-248.728v33.618c0,9.285,7.386,16.812,16.495,16.812c9.111,0,16.496-7.526,16.496-16.812
				v-33.618H1375.228z"/>
			<path fill="#D66B6B" d="M1408.219-248.728v33.618c0,9.285,7.387,16.812,16.497,16.812c9.109,0,16.495-7.526,16.495-16.812
				v-33.618H1408.219z"/>
		</g>
		<g>
			<path fill="#D66B6B" d="M1441.211-248.728v33.618c0,9.285,7.385,16.812,16.496,16.812c9.109,0,16.496-7.526,16.496-16.812
				v-33.618H1441.211z"/>
			<path fill="#D66B6B" d="M1474.203-248.728v33.618c0,9.285,7.385,16.812,16.495,16.812s16.496-7.526,16.496-16.812v-33.618
				H1474.203z"/>
			<path fill="#D66B6B" d="M1507.194-248.728v33.618c0,9.285,7.386,16.812,16.496,16.812s16.496-7.526,16.496-16.812v-33.618
				H1507.194z"/>
			<path fill="#D66B6B" d="M1540.187-248.728v33.618c0,9.285,7.386,16.812,16.496,16.812s16.495-7.526,16.495-16.812v-33.618
				H1540.187z"/>
			<path fill="#D66B6B" d="M1573.178-248.728v33.618c0,9.285,7.387,16.812,16.496,16.812c9.111,0,16.497-7.526,16.497-16.812
				v-33.618H1573.178z"/>
			<path fill="#D66B6B" d="M1606.171-248.728v33.618c0,9.285,7.386,16.812,16.496,16.812s16.496-7.526,16.496-16.812v-33.618
				H1606.171z"/>
			<path fill="#D66B6B" d="M1639.163-248.728v33.618c0,9.285,7.386,16.812,16.495,16.812c9.111,0,16.497-7.526,16.497-16.812
				v-33.618H1639.163z"/>
			<path fill="#D66B6B" d="M1672.155-248.728v33.618c0,9.285,7.386,16.812,16.495,16.812c9.111,0,16.496-7.526,16.496-16.812
				v-33.618H1672.155z"/>
			<path fill="#D66B6B" d="M1705.146-248.728v33.618c0,9.285,7.387,16.812,16.496,16.812c9.11,0,16.496-7.526,16.496-16.812v-33.618
				H1705.146z"/>
			<path fill="#D66B6B" d="M1738.139-248.728v33.618c0,9.285,7.387,16.812,16.497,16.812c9.109,0,16.496-7.526,16.496-16.812
				v-33.618H1738.139z"/>
			<path fill="#D66B6B" d="M1771.132-248.728v33.618c0,9.285,7.386,16.812,16.496,16.812c9.109,0,16.496-7.526,16.496-16.812
				v-33.618H1771.132z"/>
			<path fill="#D66B6B" d="M1804.124-248.728v33.618c0,9.285,7.385,16.812,16.497,16.812c9.107,0,16.494-7.526,16.494-16.812
				v-33.618H1804.124z"/>
			<path fill="#D66B6B" d="M1837.115-248.728v33.618c0,9.285,7.386,16.812,16.496,16.812c9.111,0,16.496-7.526,16.496-16.812
				v-33.618H1837.115z"/>
			<path fill="#D66B6B" d="M1870.107-248.728v33.618c0,9.285,7.386,16.812,16.496,16.812s16.496-7.526,16.496-16.812v-33.618
				H1870.107z"/>
			<path fill="#D66B6B" d="M1903.1-248.728v33.618c0,9.285,7.387,16.812,16.496,16.812c9.11,0,16.496-7.526,16.496-16.812v-33.618
				H1903.1z"/>
			<path fill="#D66B6B" d="M1936.092-248.728v33.618c0,9.285,7.386,16.812,16.497,16.812c9.108,0,16.495-7.526,16.495-16.812
				v-33.618H1936.092z"/>
			<path fill="#D66B6B" d="M1969.084-248.728v33.618c0,9.285,7.385,16.812,16.495,16.812c9.111,0,16.497-7.526,16.497-16.812
				v-33.618H1969.084z"/>
			<path fill="#D66B6B" d="M2002.076-248.728v33.618c0,9.285,7.386,16.812,16.495,16.812c9.111,0,16.496-7.526,16.496-16.812
				v-33.618H2002.076z"/>
			<path fill="#D66B6B" d="M2035.067-248.728v33.618c0,9.285,7.387,16.812,16.497,16.812c9.109,0,16.495-7.526,16.495-16.812
				v-33.618H2035.067z"/>
		</g>
	</g>
	<g>
		<g>
			<path fill="#DD7C7C" d="M807.293-273.942v33.618c0,9.285,7.385,16.812,16.496,16.812c9.109,0,16.496-7.526,16.496-16.812v-33.618
				H807.293z"/>
			<path fill="#DD7C7C" d="M840.285-273.942v33.618c0,9.285,7.385,16.812,16.495,16.812s16.496-7.526,16.496-16.812v-33.618H840.285
				z"/>
			<path fill="#DD7C7C" d="M873.276-273.942v33.618c0,9.285,7.386,16.812,16.496,16.812s16.496-7.526,16.496-16.812v-33.618H873.276
				z"/>
			<path fill="#DD7C7C" d="M906.269-273.942v33.618c0,9.285,7.386,16.812,16.496,16.812s16.495-7.526,16.495-16.812v-33.618H906.269
				z"/>
			<path fill="#DD7C7C" d="M939.26-273.942v33.618c0,9.285,7.387,16.812,16.496,16.812c9.111,0,16.497-7.526,16.497-16.812v-33.618
				H939.26z"/>
			<path fill="#DD7C7C" d="M972.253-273.942v33.618c0,9.285,7.386,16.812,16.496,16.812s16.496-7.526,16.496-16.812v-33.618H972.253
				z"/>
			<path fill="#DD7C7C" d="M1005.245-273.942v33.618c0,9.285,7.386,16.812,16.495,16.812c9.111,0,16.497-7.526,16.497-16.812
				v-33.618H1005.245z"/>
			<path fill="#DD7C7C" d="M1038.237-273.942v33.618c0,9.285,7.386,16.812,16.495,16.812c9.111,0,16.496-7.526,16.496-16.812
				v-33.618H1038.237z"/>
			<path fill="#DD7C7C" d="M1071.229-273.942v33.618c0,9.285,7.387,16.812,16.496,16.812c9.11,0,16.496-7.526,16.496-16.812v-33.618
				H1071.229z"/>
			<path fill="#DD7C7C" d="M1104.221-273.942v33.618c0,9.285,7.387,16.812,16.497,16.812c9.109,0,16.496-7.526,16.496-16.812
				v-33.618H1104.221z"/>
			<path fill="#DD7C7C" d="M1137.214-273.942v33.618c0,9.285,7.386,16.812,16.496,16.812c9.109,0,16.496-7.526,16.496-16.812
				v-33.618H1137.214z"/>
			<path fill="#DD7C7C" d="M1170.206-273.942v33.618c0,9.285,7.385,16.812,16.497,16.812c9.107,0,16.494-7.526,16.494-16.812
				v-33.618H1170.206z"/>
			<path fill="#DD7C7C" d="M1203.197-273.942v33.618c0,9.285,7.386,16.812,16.496,16.812c9.111,0,16.496-7.526,16.496-16.812
				v-33.618H1203.197z"/>
			<path fill="#DD7C7C" d="M1236.189-273.942v33.618c0,9.285,7.386,16.812,16.496,16.812s16.496-7.526,16.496-16.812v-33.618
				H1236.189z"/>
			<path fill="#DD7C7C" d="M1269.182-273.942v33.618c0,9.285,7.387,16.812,16.496,16.812c9.11,0,16.496-7.526,16.496-16.812v-33.618
				H1269.182z"/>
			<path fill="#DD7C7C" d="M1302.174-273.942v33.618c0,9.285,7.386,16.812,16.497,16.812c9.108,0,16.495-7.526,16.495-16.812
				v-33.618H1302.174z"/>
			<path fill="#DD7C7C" d="M1335.166-273.942v33.618c0,9.285,7.385,16.812,16.495,16.812c9.111,0,16.497-7.526,16.497-16.812
				v-33.618H1335.166z"/>
			<path fill="#DD7C7C" d="M1368.158-273.942v33.618c0,9.285,7.386,16.812,16.495,16.812c9.111,0,16.496-7.526,16.496-16.812
				v-33.618H1368.158z"/>
			<path fill="#DD7C7C" d="M1401.149-273.942v33.618c0,9.285,7.387,16.812,16.497,16.812c9.109,0,16.495-7.526,16.495-16.812
				v-33.618H1401.149z"/>
		</g>
		<g>
			<path fill="#DD7C7C" d="M1434.142-273.942v33.618c0,9.285,7.385,16.812,16.496,16.812c9.109,0,16.496-7.526,16.496-16.812
				v-33.618H1434.142z"/>
			<path fill="#DD7C7C" d="M1467.134-273.942v33.618c0,9.285,7.385,16.812,16.495,16.812s16.496-7.526,16.496-16.812v-33.618
				H1467.134z"/>
			<path fill="#DD7C7C" d="M1500.125-273.942v33.618c0,9.285,7.386,16.812,16.496,16.812s16.496-7.526,16.496-16.812v-33.618
				H1500.125z"/>
			<path fill="#DD7C7C" d="M1533.117-273.942v33.618c0,9.285,7.386,16.812,16.496,16.812s16.495-7.526,16.495-16.812v-33.618
				H1533.117z"/>
			<path fill="#DD7C7C" d="M1566.108-273.942v33.618c0,9.285,7.387,16.812,16.496,16.812c9.111,0,16.497-7.526,16.497-16.812
				v-33.618H1566.108z"/>
			<path fill="#DD7C7C" d="M1599.102-273.942v33.618c0,9.285,7.386,16.812,16.496,16.812s16.496-7.526,16.496-16.812v-33.618
				H1599.102z"/>
			<path fill="#DD7C7C" d="M1632.094-273.942v33.618c0,9.285,7.386,16.812,16.495,16.812c9.111,0,16.497-7.526,16.497-16.812
				v-33.618H1632.094z"/>
			<path fill="#DD7C7C" d="M1665.086-273.942v33.618c0,9.285,7.386,16.812,16.495,16.812c9.111,0,16.496-7.526,16.496-16.812
				v-33.618H1665.086z"/>
			<path fill="#DD7C7C" d="M1698.077-273.942v33.618c0,9.285,7.387,16.812,16.496,16.812c9.11,0,16.496-7.526,16.496-16.812v-33.618
				H1698.077z"/>
			<path fill="#DD7C7C" d="M1731.069-273.942v33.618c0,9.285,7.387,16.812,16.497,16.812c9.109,0,16.496-7.526,16.496-16.812
				v-33.618H1731.069z"/>
			<path fill="#DD7C7C" d="M1764.063-273.942v33.618c0,9.285,7.386,16.812,16.496,16.812c9.109,0,16.496-7.526,16.496-16.812
				v-33.618H1764.063z"/>
			<path fill="#DD7C7C" d="M1797.055-273.942v33.618c0,9.285,7.385,16.812,16.497,16.812c9.107,0,16.494-7.526,16.494-16.812
				v-33.618H1797.055z"/>
			<path fill="#DD7C7C" d="M1830.046-273.942v33.618c0,9.285,7.386,16.812,16.496,16.812c9.111,0,16.496-7.526,16.496-16.812
				v-33.618H1830.046z"/>
			<path fill="#DD7C7C" d="M1863.038-273.942v33.618c0,9.285,7.386,16.812,16.496,16.812s16.496-7.526,16.496-16.812v-33.618
				H1863.038z"/>
			<path fill="#DD7C7C" d="M1896.03-273.942v33.618c0,9.285,7.387,16.812,16.496,16.812c9.11,0,16.496-7.526,16.496-16.812v-33.618
				H1896.03z"/>
			<path fill="#DD7C7C" d="M1929.022-273.942v33.618c0,9.285,7.386,16.812,16.497,16.812c9.108,0,16.495-7.526,16.495-16.812
				v-33.618H1929.022z"/>
			<path fill="#DD7C7C" d="M1962.015-273.942v33.618c0,9.285,7.385,16.812,16.495,16.812c9.111,0,16.497-7.526,16.497-16.812
				v-33.618H1962.015z"/>
			<path fill="#DD7C7C" d="M1995.007-273.942v33.618c0,9.285,7.386,16.812,16.495,16.812c9.111,0,16.496-7.526,16.496-16.812
				v-33.618H1995.007z"/>
			<path fill="#DD7C7C" d="M2027.998-273.942v33.618c0,9.285,7.387,16.812,16.497,16.812c9.109,0,16.495-7.526,16.495-16.812
				v-33.618H2027.998z"/>
		</g>
	</g>
	<g>
		<g>
			<path fill="#D88B8B" d="M800.223-299.157v33.618c0,9.285,7.385,16.812,16.496,16.812c9.109,0,16.496-7.526,16.496-16.812v-33.618
				H800.223z"/>
			<path fill="#D88B8B" d="M833.215-299.157v33.618c0,9.285,7.385,16.812,16.495,16.812s16.496-7.526,16.496-16.812v-33.618H833.215
				z"/>
			<path fill="#D88B8B" d="M866.206-299.157v33.618c0,9.285,7.386,16.812,16.496,16.812s16.496-7.526,16.496-16.812v-33.618H866.206
				z"/>
			<path fill="#D88B8B" d="M899.198-299.157v33.618c0,9.285,7.386,16.812,16.496,16.812s16.495-7.526,16.495-16.812v-33.618H899.198
				z"/>
			<path fill="#D88B8B" d="M932.189-299.157v33.618c0,9.285,7.387,16.812,16.496,16.812c9.111,0,16.497-7.526,16.497-16.812v-33.618
				H932.189z"/>
			<path fill="#D88B8B" d="M965.183-299.157v33.618c0,9.285,7.386,16.812,16.496,16.812s16.496-7.526,16.496-16.812v-33.618H965.183
				z"/>
			<path fill="#D88B8B" d="M998.175-299.157v33.618c0,9.285,7.386,16.812,16.495,16.812c9.111,0,16.497-7.526,16.497-16.812v-33.618
				H998.175z"/>
			<path fill="#D88B8B" d="M1031.167-299.157v33.618c0,9.285,7.386,16.812,16.495,16.812c9.111,0,16.496-7.526,16.496-16.812
				v-33.618H1031.167z"/>
			<path fill="#D88B8B" d="M1064.158-299.157v33.618c0,9.285,7.387,16.812,16.496,16.812c9.11,0,16.496-7.526,16.496-16.812v-33.618
				H1064.158z"/>
			<path fill="#D88B8B" d="M1097.15-299.157v33.618c0,9.285,7.387,16.812,16.497,16.812c9.109,0,16.496-7.526,16.496-16.812v-33.618
				H1097.15z"/>
			<path fill="#D88B8B" d="M1130.144-299.157v33.618c0,9.285,7.386,16.812,16.496,16.812c9.109,0,16.496-7.526,16.496-16.812
				v-33.618H1130.144z"/>
			<path fill="#D88B8B" d="M1163.136-299.157v33.618c0,9.285,7.385,16.812,16.497,16.812c9.107,0,16.494-7.526,16.494-16.812
				v-33.618H1163.136z"/>
			<path fill="#D88B8B" d="M1196.127-299.157v33.618c0,9.285,7.386,16.812,16.496,16.812c9.111,0,16.496-7.526,16.496-16.812
				v-33.618H1196.127z"/>
			<path fill="#D88B8B" d="M1229.119-299.157v33.618c0,9.285,7.386,16.812,16.496,16.812s16.496-7.526,16.496-16.812v-33.618
				H1229.119z"/>
			<path fill="#D88B8B" d="M1262.111-299.157v33.618c0,9.285,7.387,16.812,16.496,16.812c9.11,0,16.496-7.526,16.496-16.812v-33.618
				H1262.111z"/>
			<path fill="#D88B8B" d="M1295.104-299.157v33.618c0,9.285,7.386,16.812,16.497,16.812c9.108,0,16.495-7.526,16.495-16.812
				v-33.618H1295.104z"/>
			<path fill="#D88B8B" d="M1328.096-299.157v33.618c0,9.285,7.385,16.812,16.495,16.812c9.111,0,16.497-7.526,16.497-16.812
				v-33.618H1328.096z"/>
			<path fill="#D88B8B" d="M1361.088-299.157v33.618c0,9.285,7.386,16.812,16.495,16.812c9.111,0,16.496-7.526,16.496-16.812
				v-33.618H1361.088z"/>
			<path fill="#D88B8B" d="M1394.079-299.157v33.618c0,9.285,7.387,16.812,16.497,16.812c9.109,0,16.495-7.526,16.495-16.812
				v-33.618H1394.079z"/>
		</g>
		<g>
			<path fill="#D88B8B" d="M1427.071-299.157v33.618c0,9.285,7.385,16.812,16.496,16.812c9.109,0,16.496-7.526,16.496-16.812
				v-33.618H1427.071z"/>
			<path fill="#D88B8B" d="M1460.063-299.157v33.618c0,9.285,7.385,16.812,16.495,16.812s16.496-7.526,16.496-16.812v-33.618
				H1460.063z"/>
			<path fill="#D88B8B" d="M1493.055-299.157v33.618c0,9.285,7.386,16.812,16.496,16.812s16.496-7.526,16.496-16.812v-33.618
				H1493.055z"/>
			<path fill="#D88B8B" d="M1526.047-299.157v33.618c0,9.285,7.386,16.812,16.496,16.812s16.495-7.526,16.495-16.812v-33.618
				H1526.047z"/>
			<path fill="#D88B8B" d="M1559.038-299.157v33.618c0,9.285,7.387,16.812,16.496,16.812c9.111,0,16.497-7.526,16.497-16.812
				v-33.618H1559.038z"/>
			<path fill="#D88B8B" d="M1592.031-299.157v33.618c0,9.285,7.386,16.812,16.496,16.812s16.496-7.526,16.496-16.812v-33.618
				H1592.031z"/>
			<path fill="#D88B8B" d="M1625.023-299.157v33.618c0,9.285,7.386,16.812,16.495,16.812c9.111,0,16.497-7.526,16.497-16.812
				v-33.618H1625.023z"/>
			<path fill="#D88B8B" d="M1658.016-299.157v33.618c0,9.285,7.386,16.812,16.495,16.812c9.111,0,16.496-7.526,16.496-16.812
				v-33.618H1658.016z"/>
			<path fill="#D88B8B" d="M1691.007-299.157v33.618c0,9.285,7.387,16.812,16.496,16.812c9.11,0,16.496-7.526,16.496-16.812v-33.618
				H1691.007z"/>
			<path fill="#D88B8B" d="M1723.999-299.157v33.618c0,9.285,7.387,16.812,16.497,16.812c9.109,0,16.496-7.526,16.496-16.812
				v-33.618H1723.999z"/>
			<path fill="#D88B8B" d="M1756.992-299.157v33.618c0,9.285,7.386,16.812,16.496,16.812c9.109,0,16.496-7.526,16.496-16.812
				v-33.618H1756.992z"/>
			<path fill="#D88B8B" d="M1789.984-299.157v33.618c0,9.285,7.385,16.812,16.497,16.812c9.107,0,16.494-7.526,16.494-16.812
				v-33.618H1789.984z"/>
			<path fill="#D88B8B" d="M1822.976-299.157v33.618c0,9.285,7.386,16.812,16.496,16.812c9.111,0,16.496-7.526,16.496-16.812
				v-33.618H1822.976z"/>
			<path fill="#D88B8B" d="M1855.968-299.157v33.618c0,9.285,7.386,16.812,16.496,16.812s16.496-7.526,16.496-16.812v-33.618
				H1855.968z"/>
			<path fill="#D88B8B" d="M1888.96-299.157v33.618c0,9.285,7.387,16.812,16.496,16.812c9.11,0,16.496-7.526,16.496-16.812v-33.618
				H1888.96z"/>
			<path fill="#D88B8B" d="M1921.952-299.157v33.618c0,9.285,7.386,16.812,16.497,16.812c9.108,0,16.495-7.526,16.495-16.812
				v-33.618H1921.952z"/>
			<path fill="#D88B8B" d="M1954.944-299.157v33.618c0,9.285,7.385,16.812,16.495,16.812c9.111,0,16.497-7.526,16.497-16.812
				v-33.618H1954.944z"/>
			<path fill="#D88B8B" d="M1987.937-299.157v33.618c0,9.285,7.386,16.812,16.495,16.812c9.111,0,16.496-7.526,16.496-16.812
				v-33.618H1987.937z"/>
			<path fill="#D88B8B" d="M2020.928-299.157v33.618c0,9.285,7.387,16.812,16.497,16.812c9.109,0,16.495-7.526,16.495-16.812
				v-33.618H2020.928z"/>
		</g>
	</g>
	<g>
		<g>
			<path fill="#DD9B9B" d="M793.153-324.372v33.618c0,9.285,7.385,16.812,16.496,16.812c9.109,0,16.496-7.526,16.496-16.812v-33.618
				H793.153z"/>
			<path fill="#DD9B9B" d="M826.146-324.372v33.618c0,9.285,7.385,16.812,16.495,16.812s16.496-7.526,16.496-16.812v-33.618H826.146
				z"/>
			<path fill="#DD9B9B" d="M859.137-324.372v33.618c0,9.285,7.386,16.812,16.496,16.812s16.496-7.526,16.496-16.812v-33.618H859.137
				z"/>
			<path fill="#DD9B9B" d="M892.129-324.372v33.618c0,9.285,7.386,16.812,16.496,16.812s16.495-7.526,16.495-16.812v-33.618H892.129
				z"/>
			<path fill="#DD9B9B" d="M925.12-324.372v33.618c0,9.285,7.387,16.812,16.496,16.812c9.111,0,16.497-7.526,16.497-16.812v-33.618
				H925.12z"/>
			<path fill="#DD9B9B" d="M958.113-324.372v33.618c0,9.285,7.386,16.812,16.496,16.812s16.496-7.526,16.496-16.812v-33.618H958.113
				z"/>
			<path fill="#DD9B9B" d="M991.105-324.372v33.618c0,9.285,7.386,16.812,16.495,16.812c9.111,0,16.497-7.526,16.497-16.812v-33.618
				H991.105z"/>
			<path fill="#DD9B9B" d="M1024.098-324.372v33.618c0,9.285,7.386,16.812,16.495,16.812c9.111,0,16.496-7.526,16.496-16.812
				v-33.618H1024.098z"/>
			<path fill="#DD9B9B" d="M1057.089-324.372v33.618c0,9.285,7.387,16.812,16.496,16.812c9.11,0,16.496-7.526,16.496-16.812v-33.618
				H1057.089z"/>
			<path fill="#DD9B9B" d="M1090.081-324.372v33.618c0,9.285,7.387,16.812,16.497,16.812c9.109,0,16.496-7.526,16.496-16.812
				v-33.618H1090.081z"/>
			<path fill="#DD9B9B" d="M1123.074-324.372v33.618c0,9.285,7.386,16.812,16.496,16.812c9.109,0,16.496-7.526,16.496-16.812
				v-33.618H1123.074z"/>
			<path fill="#DD9B9B" d="M1156.066-324.372v33.618c0,9.285,7.385,16.812,16.497,16.812c9.107,0,16.494-7.526,16.494-16.812
				v-33.618H1156.066z"/>
			<path fill="#DD9B9B" d="M1189.058-324.372v33.618c0,9.285,7.386,16.812,16.496,16.812c9.111,0,16.496-7.526,16.496-16.812
				v-33.618H1189.058z"/>
			<path fill="#DD9B9B" d="M1222.05-324.372v33.618c0,9.285,7.386,16.812,16.496,16.812s16.496-7.526,16.496-16.812v-33.618H1222.05
				z"/>
			<path fill="#DD9B9B" d="M1255.042-324.372v33.618c0,9.285,7.387,16.812,16.496,16.812c9.11,0,16.496-7.526,16.496-16.812v-33.618
				H1255.042z"/>
			<path fill="#DD9B9B" d="M1288.034-324.372v33.618c0,9.285,7.386,16.812,16.497,16.812c9.108,0,16.495-7.526,16.495-16.812
				v-33.618H1288.034z"/>
			<path fill="#DD9B9B" d="M1321.026-324.372v33.618c0,9.285,7.385,16.812,16.495,16.812c9.111,0,16.497-7.526,16.497-16.812
				v-33.618H1321.026z"/>
			<path fill="#DD9B9B" d="M1354.019-324.372v33.618c0,9.285,7.386,16.812,16.495,16.812c9.111,0,16.496-7.526,16.496-16.812
				v-33.618H1354.019z"/>
			<path fill="#DD9B9B" d="M1387.01-324.372v33.618c0,9.285,7.387,16.812,16.497,16.812c9.109,0,16.495-7.526,16.495-16.812v-33.618
				H1387.01z"/>
		</g>
		<g>
			<path fill="#DD9B9B" d="M1420.002-324.372v33.618c0,9.285,7.385,16.812,16.496,16.812c9.109,0,16.496-7.526,16.496-16.812
				v-33.618H1420.002z"/>
			<path fill="#DD9B9B" d="M1452.994-324.372v33.618c0,9.285,7.385,16.812,16.495,16.812s16.496-7.526,16.496-16.812v-33.618
				H1452.994z"/>
			<path fill="#DD9B9B" d="M1485.985-324.372v33.618c0,9.285,7.386,16.812,16.496,16.812s16.496-7.526,16.496-16.812v-33.618
				H1485.985z"/>
			<path fill="#DD9B9B" d="M1518.978-324.372v33.618c0,9.285,7.386,16.812,16.496,16.812s16.495-7.526,16.495-16.812v-33.618
				H1518.978z"/>
			<path fill="#DD9B9B" d="M1551.969-324.372v33.618c0,9.285,7.387,16.812,16.496,16.812c9.111,0,16.497-7.526,16.497-16.812
				v-33.618H1551.969z"/>
			<path fill="#DD9B9B" d="M1584.962-324.372v33.618c0,9.285,7.386,16.812,16.496,16.812s16.496-7.526,16.496-16.812v-33.618
				H1584.962z"/>
			<path fill="#DD9B9B" d="M1617.954-324.372v33.618c0,9.285,7.386,16.812,16.495,16.812c9.111,0,16.497-7.526,16.497-16.812
				v-33.618H1617.954z"/>
			<path fill="#DD9B9B" d="M1650.946-324.372v33.618c0,9.285,7.386,16.812,16.495,16.812c9.111,0,16.496-7.526,16.496-16.812
				v-33.618H1650.946z"/>
			<path fill="#DD9B9B" d="M1683.938-324.372v33.618c0,9.285,7.387,16.812,16.496,16.812c9.11,0,16.496-7.526,16.496-16.812v-33.618
				H1683.938z"/>
			<path fill="#DD9B9B" d="M1716.93-324.372v33.618c0,9.285,7.387,16.812,16.497,16.812c9.109,0,16.496-7.526,16.496-16.812v-33.618
				H1716.93z"/>
			<path fill="#DD9B9B" d="M1749.923-324.372v33.618c0,9.285,7.386,16.812,16.496,16.812c9.109,0,16.496-7.526,16.496-16.812
				v-33.618H1749.923z"/>
			<path fill="#DD9B9B" d="M1782.915-324.372v33.618c0,9.285,7.385,16.812,16.497,16.812c9.107,0,16.494-7.526,16.494-16.812
				v-33.618H1782.915z"/>
			<path fill="#DD9B9B" d="M1815.906-324.372v33.618c0,9.285,7.386,16.812,16.496,16.812c9.111,0,16.496-7.526,16.496-16.812
				v-33.618H1815.906z"/>
			<path fill="#DD9B9B" d="M1848.898-324.372v33.618c0,9.285,7.386,16.812,16.496,16.812s16.496-7.526,16.496-16.812v-33.618
				H1848.898z"/>
			<path fill="#DD9B9B" d="M1881.891-324.372v33.618c0,9.285,7.387,16.812,16.496,16.812c9.11,0,16.496-7.526,16.496-16.812v-33.618
				H1881.891z"/>
			<path fill="#DD9B9B" d="M1914.883-324.372v33.618c0,9.285,7.386,16.812,16.497,16.812c9.108,0,16.495-7.526,16.495-16.812
				v-33.618H1914.883z"/>
			<path fill="#DD9B9B" d="M1947.875-324.372v33.618c0,9.285,7.385,16.812,16.495,16.812c9.111,0,16.497-7.526,16.497-16.812
				v-33.618H1947.875z"/>
			<path fill="#DD9B9B" d="M1980.867-324.372v33.618c0,9.285,7.386,16.812,16.495,16.812c9.111,0,16.496-7.526,16.496-16.812
				v-33.618H1980.867z"/>
			<path fill="#DD9B9B" d="M2013.858-324.372v33.618c0,9.285,7.387,16.812,16.497,16.812c9.109,0,16.495-7.526,16.495-16.812
				v-33.618H2013.858z"/>
		</g>
	</g>
</g>
</svg>
